Montserrat-SemiBold.ufo
<glyph name="period" format="2">
  <advance width="235"/>
  <unicode hex="002E"/>
  <outline>
    <contour>
      <point x="118" y="-6" type="curve" smooth="yes"/>
      <point x="158" y="-6"/>
      <point x="192" y="26"/>
      <point x="192" y="70" type="curve" smooth="yes"/>
      <point x="192" y="115"/>
      <point x="158" y="146"/>
      <point x="118" y="146" type="curve" smooth="yes"/>
      <point x="77" y="146"/>
      <point x="43" y="115"/>
      <point x="43" y="70" type="curve" smooth="yes"/>
      <point x="43" y="26"/>
      <point x="77" y="-6"/>
    </contour>
  </outline>
</glyph>
<glyph name="four" format="2">
  <advance width="674"/>
  <unicode hex="0034"/>
  <outline>
    <contour>
      <point x="36" y="165" type="line"/>
      <point x="662" y="165" type="line"/>
      <point x="662" y="264" type="line"/>
      <point x="105" y="264" type="line"/>
      <point x="164" y="246" type="line"/>
      <point x="511" y="700" type="line"/>
      <point x="388" y="700" type="line"/>
      <point x="36" y="246" type="line"/>
    </contour>
    <contour>
      <point x="423" y="0" type="line"/>
      <point x="534" y="0" type="line"/>
      <point x="534" y="410" type="line"/>
      <point x="426" y="410" type="line"/>
      <point x="426" y="264" type="line"/>
      <point x="423" y="165" type="line"/>
    </contour>
  </outline>
</glyph>
<glyph name="less" format="2">
  <advance width="586"/>
  <unicode hex="003C"/>
  <outline>
    <contour>
      <point x="520" y="123" type="line"/>
      <point x="520" y="217" type="line"/>
      <point x="102" y="376" type="line"/>
      <point x="102" y="324" type="line"/>
      <point x="520" y="483" type="line"/>
      <point x="520" y="577" type="line"/>
      <point x="66" y="399" type="line"/>
      <point x="66" y="301" type="line"/>
    </contour>
  </outline>
</glyph>
<glyph name="greater" format="2">
  <advance width="586"/>
  <unicode hex="003E"/>
  <outline>
    <contour>
      <point x="66" y="123" type="line"/>
      <point x="520" y="301" type="line"/>
      <point x="520" y="399" type="line"/>
      <point x="66" y="577" type="line"/>
      <point x="66" y="483" type="line"/>
      <point x="485" y="324" type="line"/>
      <point x="485" y="376" type="line"/>
      <point x="66" y="217" type="line"/>
    </contour>
  </outline>
</glyph>
<glyph name="question" format="2">
  <advance width="577"/>
  <unicode hex="003F"/>
  <outline>
    <contour>
      <point x="224" y="227" type="curve"/>
      <point x="339" y="227" type="line"/>
      <point x="339" y="351"/>
      <point x="512" y="364"/>
      <point x="512" y="529" type="curve" smooth="yes"/>
      <point x="512" y="642"/>
      <point x="417" y="709"/>
      <point x="271" y="709" type="curve" smooth="yes"/>
      <point x="152" y="709"/>
      <point x="63" y="666"/>
      <point x="7" y="593" type="curve"/>
      <point x="91" y="534" type="line"/>
      <point x="129" y="584"/>
      <point x="185" y="612"/>
      <point x="263" y="612" type="curve" smooth="yes"/>
      <point x="346" y="612"/>
      <point x="397" y="571"/>
      <point x="397" y="511" type="curve" smooth="yes"/>
      <point x="397" y="406"/>
      <point x="224" y="379"/>
    </contour>
    <contour>
      <point x="282" y="-6" type="curve" smooth="yes"/>
      <point x="324" y="-6"/>
      <point x="354" y="26"/>
      <point x="354" y="65" type="curve" smooth="yes"/>
      <point x="354" y="105"/>
      <point x="324" y="136"/>
      <point x="282" y="136" type="curve" smooth="yes"/>
      <point x="240" y="136"/>
      <point x="210" y="105"/>
      <point x="210" y="65" type="curve" smooth="yes"/>
      <point x="210" y="26"/>
      <point x="240" y="-6"/>
    </contour>
  </outline>
</glyph>
<glyph name="C" format="2">
  <advance width="725"/>
  <unicode hex="0043"/>
  <anchor x="401.01" y="0" name="bottom"/>
  <anchor x="412" y="700" name="top"/>
  <outline>
    <contour>
      <point x="418" y="-9" type="curve" smooth="yes"/>
      <point x="530" y="-9"/>
      <point x="626" y="30"/>
      <point x="690" y="105" type="curve"/>
      <point x="616" y="177" type="line"/>
      <point x="564" y="120"/>
      <point x="499" y="93"/>
      <point x="424" y="93" type="curve" smooth="yes"/>
      <point x="272" y="93"/>
      <point x="161" y="201"/>
      <point x="161" y="350" type="curve" smooth="yes"/>
      <point x="161" y="499"/>
      <point x="272" y="607"/>
      <point x="424" y="607" type="curve" smooth="yes"/>
      <point x="499" y="607"/>
      <point x="564" y="580"/>
      <point x="616" y="524" type="curve"/>
      <point x="690" y="596" type="line"/>
      <point x="626" y="670"/>
      <point x="530" y="709"/>
      <point x="419" y="709" type="curve" smooth="yes"/>
      <point x="205" y="709"/>
      <point x="46" y="558"/>
      <point x="46" y="350" type="curve" smooth="yes"/>
      <point x="46" y="142"/>
      <point x="205" y="-9"/>
    </contour>
  </outline>
</glyph>
<glyph name="H" format="2">
  <advance width="811"/>
  <unicode hex="0048"/>
  <anchor x="405" y="0" name="bottom"/>
  <anchor x="405" y="556" name="center"/>
  <anchor x="405" y="700" name="top"/>
  <outline>
    <contour>
      <point x="597" y="700" type="line"/>
      <point x="597" y="0" type="line"/>
      <point x="711" y="0" type="line"/>
      <point x="711" y="700" type="line"/>
    </contour>
    <contour>
      <point x="214" y="0" type="line"/>
      <point x="214" y="700" type="line"/>
      <point x="100" y="700" type="line"/>
      <point x="100" y="0" type="line"/>
    </contour>
    <contour>
      <point x="606" y="306" type="line"/>
      <point x="606" y="405" type="line"/>
      <point x="204" y="405" type="line"/>
      <point x="204" y="306" type="line"/>
    </contour>
  </outline>
</glyph>
<glyph name="L" format="2">
  <advance width="596"/>
  <unicode hex="004C"/>
  <anchor x="355" y="0" name="bottom"/>
  <anchor x="157" y="379" name="center"/>
  <anchor x="455" y="399" name="dot"/>
  <anchor x="157" y="700" name="top"/>
  <anchor x="436" y="700" name="topright"/>
  <outline>
    <contour>
      <point x="100" y="0" type="line"/>
      <point x="587" y="0" type="line"/>
      <point x="587" y="99" type="line"/>
      <point x="214" y="99" type="line"/>
      <point x="214" y="700" type="line"/>
      <point x="100" y="700" type="line"/>
    </contour>
  </outline>
</glyph>
<glyph name="b" format="2">
  <advance width="684"/>
  <unicode hex="0062"/>
  <outline>
    <contour>
      <point x="373" y="-6" type="curve" smooth="yes"/>
      <point x="530" y="-6"/>
      <point x="644" y="102"/>
      <point x="644" y="266" type="curve" smooth="yes"/>
      <point x="644" y="430"/>
      <point x="530" y="538"/>
      <point x="373" y="538" type="curve" smooth="yes"/>
      <point x="242" y="538"/>
      <point x="134" y="451"/>
      <point x="134" y="266" type="curve" smooth="yes"/>
      <point x="134" y="81"/>
      <point x="238" y="-6"/>
    </contour>
    <contour>
      <point x="87" y="0" type="line"/>
      <point x="192" y="0" type="line"/>
      <point x="192" y="134" type="line"/>
      <point x="187" y="267" type="line"/>
      <point x="197" y="400" type="line"/>
      <point x="197" y="742" type="line"/>
      <point x="87" y="742" type="line"/>
    </contour>
    <contour>
      <point x="364" y="90" type="curve" smooth="yes"/>
      <point x="268" y="90"/>
      <point x="195" y="159"/>
      <point x="195" y="266" type="curve" smooth="yes"/>
      <point x="195" y="373"/>
      <point x="268" y="442"/>
      <point x="364" y="442" type="curve" smooth="yes"/>
      <point x="460" y="442"/>
      <point x="533" y="373"/>
      <point x="533" y="266" type="curve" smooth="yes"/>
      <point x="533" y="159"/>
      <point x="460" y="90"/>
    </contour>
  </outline>
</glyph>
<glyph name="h" format="2">
  <advance width="683"/>
  <unicode hex="0068"/>
  <anchor x="344" y="0" name="bottom"/>
  <anchor x="200" y="635" name="center"/>
  <anchor x="142" y="742" name="top"/>
  <anchor x="264" y="532" name="topright"/>
  <outline>
    <contour>
      <point x="378" y="538" type="curve" smooth="yes"/>
      <point x="285" y="538"/>
      <point x="210" y="501"/>
      <point x="174" y="434" type="curve"/>
      <point x="197" y="390" type="line"/>
      <point x="197" y="742" type="line"/>
      <point x="87" y="742" type="line"/>
      <point x="87" y="0" type="line"/>
      <point x="197" y="0" type="line"/>
      <point x="197" y="272" type="line" smooth="yes"/>
      <point x="197" y="383"/>
      <point x="260" y="440"/>
      <point x="355" y="440" type="curve" smooth="yes"/>
      <point x="441" y="440"/>
      <point x="491" y="391"/>
      <point x="491" y="292" type="curve" smooth="yes"/>
      <point x="491" y="0" type="line"/>
      <point x="601" y="0" type="line"/>
      <point x="601" y="305" type="line" smooth="yes"/>
      <point x="601" y="464"/>
      <point x="507" y="538"/>
    </contour>
  </outline>
</glyph>
<glyph name="s" format="2">
  <advance width="508"/>
  <unicode hex="0073"/>
  <anchor x="251" y="0" name="bottom"/>
  <anchor x="251" y="532" name="top"/>
  <outline>
    <contour>
      <point x="245" y="-6" type="curve" smooth="yes"/>
      <point x="388" y="-6"/>
      <point x="480" y="55"/>
      <point x="480" y="155" type="curve" smooth="yes"/>
      <point x="480" y="363"/>
      <point x="148" y="264"/>
      <point x="148" y="379" type="curve" smooth="yes"/>
      <point x="148" y="417"/>
      <point x="187" y="444"/>
      <point x="266" y="444" type="curve" smooth="yes"/>
      <point x="317" y="444"/>
      <point x="368" y="434"/>
      <point x="418" y="404" type="curve"/>
      <point x="464" y="491" type="line"/>
      <point x="417" y="520"/>
      <point x="337" y="538"/>
      <point x="267" y="538" type="curve" smooth="yes"/>
      <point x="129" y="538"/>
      <point x="39" y="474"/>
      <point x="39" y="374" type="curve" smooth="yes"/>
      <point x="39" y="161"/>
      <point x="371" y="261"/>
      <point x="371" y="152" type="curve" smooth="yes"/>
      <point x="371" y="112"/>
      <point x="336" y="88"/>
      <point x="253" y="88" type="curve" smooth="yes"/>
      <point x="186" y="88"/>
      <point x="114" y="110"/>
      <point x="68" y="141" type="curve"/>
      <point x="22" y="54" type="line"/>
      <point x="68" y="20"/>
      <point x="156" y="-6"/>
    </contour>
  </outline>
</glyph>
<glyph name="bar" format="2">
  <advance width="301"/>
  <unicode hex="007C"/>
  <outline>
    <contour>
      <point x="100" y="-194" type="line"/>
      <point x="201" y="-194" type="line"/>
      <point x="201" y="742" type="line"/>
      <point x="100" y="742" type="line"/>
    </contour>
  </outline>
</glyph>
<glyph name="braceright" format="2">
  <advance width="360"/>
  <unicode hex="007D"/>
  <outline>
    <contour>
      <point x="65" y="-194" type="line" smooth="yes"/>
      <point x="171" y="-194"/>
      <point x="226" y="-140"/>
      <point x="226" y="-38" type="curve" smooth="yes"/>
      <point x="226" y="179" type="line" smooth="yes"/>
      <point x="226" y="213"/>
      <point x="243" y="228"/>
      <point x="270" y="228" type="curve" smooth="yes"/>
      <point x="304" y="228" type="line"/>
      <point x="304" y="320" type="line"/>
      <point x="270" y="320" type="line" smooth="yes"/>
      <point x="243" y="320"/>
      <point x="226" y="335"/>
      <point x="226" y="369" type="curve" smooth="yes"/>
      <point x="226" y="586" type="line" smooth="yes"/>
      <point x="226" y="688"/>
      <point x="171" y="742"/>
      <point x="65" y="742" type="curve" smooth="yes"/>
      <point x="18" y="742" type="line"/>
      <point x="18" y="652" type="line"/>
      <point x="41" y="652" type="line" smooth="yes"/>
      <point x="92" y="652"/>
      <point x="116" y="624"/>
      <point x="116" y="575" type="curve" smooth="yes"/>
      <point x="116" y="371" type="line" smooth="yes"/>
      <point x="116" y="297"/>
      <point x="143" y="276"/>
      <point x="204" y="267" type="curve"/>
      <point x="204" y="281" type="line"/>
      <point x="143" y="272"/>
      <point x="116" y="251"/>
      <point x="116" y="177" type="curve" smooth="yes"/>
      <point x="116" y="-27" type="line" smooth="yes"/>
      <point x="116" y="-76"/>
      <point x="92" y="-104"/>
      <point x="41" y="-104" type="curve" smooth="yes"/>
      <point x="18" y="-104" type="line"/>
      <point x="18" y="-194" type="line"/>
    </contour>
  </outline>
</glyph>
<glyph name="sterling" format="2">
  <advance width="651"/>
  <unicode hex="00A3"/>
  <outline>
    <contour>
      <point x="137" y="15" type="line"/>
      <point x="251" y="15" type="line"/>
      <point x="251" y="443" type="line" smooth="yes"/>
      <point x="251" y="549"/>
      <point x="313" y="607"/>
      <point x="430" y="607" type="curve" smooth="yes"/>
      <point x="497" y="607"/>
      <point x="554" y="596"/>
      <point x="600" y="566" type="curve"/>
      <point x="637" y="661" type="line"/>
      <point x="583" y="694"/>
      <point x="522" y="709"/>
      <point x="441" y="709" type="curve" smooth="yes"/>
      <point x="248" y="709"/>
      <point x="137" y="603"/>
      <point x="137" y="442" type="curve" smooth="yes"/>
    </contour>
    <contour>
      <point x="30" y="0" type="line"/>
      <point x="621" y="0" type="line"/>
      <point x="621" y="99" type="line"/>
      <point x="30" y="99" type="line"/>
    </contour>
    <contour>
      <point x="30" y="313" type="line"/>
      <point x="511" y="313" type="line"/>
      <point x="511" y="387" type="line"/>
      <point x="30" y="387" type="line"/>
    </contour>
  </outline>
</glyph>
<glyph name="brokenbar" format="2">
  <advance width="301"/>
  <unicode hex="00A6"/>
  <outline>
    <contour>
      <point x="100" y="392" type="line"/>
      <point x="201" y="392" type="line"/>
      <point x="201" y="742" type="line"/>
      <point x="100" y="742" type="line"/>
    </contour>
    <contour>
      <point x="100" y="-194" type="line"/>
      <point x="201" y="-194" type="line"/>
      <point x="201" y="156" type="line"/>
      <point x="100" y="156" type="line"/>
    </contour>
  </outline>
</glyph>
<glyph name="section" format="2">
  <advance width="505"/>
  <unicode hex="00A7"/>
  <outline>
    <contour>
      <point x="360" y="147" type="line"/>
      <point x="425" y="170"/>
      <point x="472" y="224"/>
      <point x="472" y="292" type="curve" smooth="yes"/>
      <point x="472" y="504"/>
      <point x="154" y="424"/>
      <point x="154" y="543" type="curve" smooth="yes"/>
      <point x="154" y="591"/>
      <point x="198" y="619"/>
      <point x="283" y="619" type="curve" smooth="yes"/>
      <point x="342" y="619"/>
      <point x="397" y="606"/>
      <point x="445" y="574" type="curve"/>
      <point x="479" y="657" type="line"/>
      <point x="436" y="689"/>
      <point x="352" y="706"/>
      <point x="291" y="706" type="curve" smooth="yes"/>
      <point x="144" y="706"/>
      <point x="56" y="639"/>
      <point x="56" y="539" type="curve" smooth="yes"/>
      <point x="56" y="335"/>
      <point x="376" y="421"/>
      <point x="376" y="291" type="curve" smooth="yes"/>
      <point x="376" y="244"/>
      <point x="338" y="212"/>
      <point x="288" y="203" type="curve"/>
    </contour>
    <contour>
      <point x="234" y="-106" type="curve" smooth="yes"/>
      <point x="364" y="-106"/>
      <point x="451" y="-39"/>
      <point x="451" y="60" type="curve" smooth="yes"/>
      <point x="451" y="266"/>
      <point x="130" y="179"/>
      <point x="130" y="310" type="curve" smooth="yes"/>
      <point x="130" y="356"/>
      <point x="167" y="387"/>
      <point x="216" y="397" type="curve"/>
      <point x="146" y="453" type="line"/>
      <point x="81" y="430"/>
      <point x="34" y="378"/>
      <point x="34" y="304" type="curve" smooth="yes"/>
      <point x="34" y="97"/>
      <point x="353" y="181"/>
      <point x="353" y="57" type="curve" smooth="yes"/>
      <point x="353" y="9"/>
      <point x="309" y="-19"/>
      <point x="238" y="-19" type="curve" smooth="yes"/>
      <point x="171" y="-19"/>
      <point x="102" y="6"/>
      <point x="59" y="40" type="curve"/>
      <point x="25" y="-44" type="line"/>
      <point x="67" y="-80"/>
      <point x="155" y="-106"/>
    </contour>
  </outline>
</glyph>
<glyph name="logicalnot" format="2">
  <advance width="586"/>
  <unicode hex="00AC"/>
  <outline>
    <contour>
      <point x="520" y="396" type="line"/>
      <point x="66" y="396" type="line"/>
      <point x="66" y="306" type="line"/>
      <point x="424" y="306" type="line"/>
      <point x="424" y="128" type="line"/>
      <point x="520" y="128" type="line"/>
    </contour>
  </outline>
</glyph>
<glyph name="periodcentered" format="2">
  <advance width="275"/>
  <unicode hex="00B7"/>
  <outline>
    <contour>
      <point x="138" y="200" type="curve" smooth="yes"/>
      <point x="180" y="200"/>
      <point x="212" y="231"/>
      <point x="212" y="277" type="curve" smooth="yes"/>
      <point x="212" y="322"/>
      <point x="180" y="353"/>
      <point x="138" y="353" type="curve" smooth="yes"/>
      <point x="96" y="353"/>
      <point x="63" y="322"/>
      <point x="63" y="277" type="curve" smooth="yes"/>
      <point x="63" y="231"/>
      <point x="96" y="200"/>
    </contour>
  </outline>
</glyph>
<glyph name="Eng" format="2">
  <advance width="811"/>
  <unicode hex="014A"/>
  <outline>
    <contour>
      <point x="100" y="0" type="line"/>
      <point x="214" y="0" type="line"/>
      <point x="214" y="556" type="line"/>
      <point x="166" y="556" type="line"/>
      <point x="617" y="0" type="line"/>
      <point x="645" y="144" type="line"/>
      <point x="194" y="700" type="line"/>
      <point x="100" y="700" type="line"/>
    </contour>
    <contour>
      <point x="486" y="-200" type="curve" smooth="yes"/>
      <point x="634" y="-200"/>
      <point x="711" y="-121"/>
      <point x="711" y="50" type="curve" smooth="yes"/>
      <point x="711" y="700" type="line"/>
      <point x="597" y="700" type="line"/>
      <point x="597" y="34" type="line" smooth="yes"/>
      <point x="597" y="-57"/>
      <point x="561" y="-102"/>
      <point x="486" y="-102" type="curve" smooth="yes"/>
      <point x="434" y="-102"/>
      <point x="392" y="-80"/>
      <point x="360" y="-42" type="curve"/>
      <point x="305" y="-125" type="line"/>
      <point x="350" y="-174"/>
      <point x="415" y="-200"/>
    </contour>
  </outline>
</glyph>
<glyph name="firsttonechinese" format="2">
  <advance width="600"/>
  <unicode hex="02C9"/>
  <anchor x="300" y="532" name="_top"/>
  <anchor x="300" y="679" name="top"/>
  <outline>
    <contour>
      <point x="132" y="640" type="line"/>
      <point x="468" y="640" type="line"/>
      <point x="468" y="708" type="line"/>
      <point x="132" y="708" type="line"/>
    </contour>
  </outline>
</glyph>
<glyph name="verticallinelowmod" format="2">
  <advance width="176"/>
  <unicode hex="02CC"/>
  <outline>
    <contour>
      <point x="50" y="-222" type="line"/>
      <point x="126" y="-222" type="line"/>
      <point x="126" y="-30" type="line"/>
      <point x="50" y="-30" type="line"/>
    </contour>
  </outline>
</glyph>
<glyph name="acutecomb" format="2">
  <unicode hex="0301"/>
  <anchor x="300" y="532" name="_top"/>
  <anchor x="300" y="709" name="top"/>
  <outline>
    <contour>
      <point x="219" y="607" type="line"/>
      <point x="321" y="607" type="line"/>
      <point x="492" y="741" type="line"/>
      <point x="355" y="741" type="line"/>
    </contour>
  </outline>
</glyph>
<glyph name="strokelongcomb" format="2">
  <unicode hex="0336"/>
  <anchor x="444" y="437" name="_center"/>
  <outline>
    <contour>
      <point x="37" y="392" type="line"/>
      <point x="850" y="392" type="line"/>
      <point x="850" y="482" type="line"/>
      <point x="37" y="482" type="line"/>
    </contour>
  </outline>
</glyph>
<glyph name="Tshe-cy" format="2">
  <advance width="845"/>
  <unicode hex="040B"/>
  <outline>
    <contour>
      <point x="249" y="0" type="line"/>
      <point x="362" y="0" type="line"/>
      <point x="362" y="630" type="line"/>
      <point x="335" y="601" type="line"/>
      <point x="618" y="601" type="line"/>
      <point x="618" y="700" type="line"/>
      <point x="14" y="700" type="line"/>
      <point x="14" y="601" type="line"/>
      <point x="277" y="601" type="line"/>
      <point x="249" y="630" type="line"/>
    </contour>
    <contour>
      <point x="344" y="379" type="curve"/>
      <point x="346" y="273" type="line"/>
      <point x="415" y="305"/>
      <point x="475" y="321"/>
      <point x="529" y="321" type="curve" smooth="yes"/>
      <point x="626" y="321"/>
      <point x="687" y="270"/>
      <point x="687" y="170" type="curve" smooth="yes"/>
      <point x="687" y="0" type="line"/>
      <point x="800" y="0" type="line"/>
      <point x="800" y="185" type="line" smooth="yes"/>
      <point x="800" y="346"/>
      <point x="703" y="423"/>
      <point x="554" y="423" type="curve" smooth="yes"/>
      <point x="490" y="423"/>
      <point x="421" y="409"/>
    </contour>
  </outline>
</glyph>
<glyph name="Ka-cy" format="2">
  <advance width="716"/>
  <unicode hex="041A"/>
  <anchor x="571" y="0" name="bottomleft"/>
  <anchor x="708" y="0" name="bottomright"/>
  <anchor x="363" y="700" name="top"/>
  <outline>
    <contour>
      <point x="571" y="0" type="line"/>
      <point x="701" y="0" type="line"/>
      <point x="418" y="401" type="line"/>
      <point x="325" y="343" type="line"/>
    </contour>
    <contour>
      <point x="104" y="0" type="line"/>
      <point x="216" y="0" type="line"/>
      <point x="216" y="700" type="line"/>
      <point x="104" y="700" type="line"/>
    </contour>
    <contour>
      <point x="182" y="301" type="line"/>
      <point x="413" y="301" type="line"/>
      <point x="413" y="402" type="line"/>
      <point x="182" y="402" type="line"/>
    </contour>
    <contour>
      <point x="428" y="337" type="line"/>
      <point x="690" y="700" type="line"/>
      <point x="568" y="700" type="line"/>
      <point x="323" y="352" type="line"/>
    </contour>
  </outline>
</glyph>
<glyph name="Hardsign-cy" format="2">
  <advance width="832"/>
  <unicode hex="042A"/>
  <outline>
    <contour>
      <point x="536" y="460" type="curve" smooth="yes"/>
      <point x="335" y="460" type="line"/>
      <point x="335" y="700" type="line"/>
      <point x="14" y="700" type="line"/>
      <point x="14" y="601" type="line"/>
      <point x="222" y="601" type="line"/>
      <point x="222" y="0" type="line"/>
      <point x="516" y="0" type="line" smooth="yes"/>
      <point x="693" y="0"/>
      <point x="795" y="81"/>
      <point x="795" y="237" type="curve" smooth="yes"/>
      <point x="795" y="385"/>
      <point x="702" y="460"/>
    </contour>
    <contour>
      <point x="512" y="90" type="curve" smooth="yes"/>
      <point x="335" y="90" type="line"/>
      <point x="335" y="370" type="line"/>
      <point x="512" y="370" type="line" smooth="yes"/>
      <point x="621" y="370"/>
      <point x="680" y="328"/>
      <point x="680" y="235" type="curve" smooth="yes"/>
      <point x="680" y="140"/>
      <point x="620" y="90"/>
    </contour>
  </outline>
</glyph>
<glyph name="pe-cy" format="2">
  <advance width="679"/>
  <unicode hex="043F"/>
  <anchor x="480" y="0" name="bottomleft"/>
  <outline>
    <contour>
      <point x="89" y="0" type="line"/>
      <point x="199" y="0" type="line"/>
      <point x="199" y="463" type="line"/>
      <point x="173" y="436" type="line"/>
      <point x="506" y="436" type="line"/>
      <point x="480" y="463" type="line"/>
      <point x="480" y="0" type="line"/>
      <point x="590" y="0" type="line"/>
      <point x="590" y="532" type="line"/>
      <point x="89" y="532" type="line"/>
    </contour>
  </outline>
</glyph>
<glyph name="te-cy" format="2">
  <advance width="504"/>
  <unicode hex="0442"/>
  <anchor x="254" y="0" name="bottom"/>
  <anchor x="197" y="0" name="bottomleft"/>
  <anchor x="254" y="250" name="center"/>
  <anchor x="254" y="532" name="top"/>
  <outline>
    <contour>
      <point x="197" y="0" type="line"/>
      <point x="307" y="0" type="line"/>
      <point x="307" y="464" type="line"/>
      <point x="281" y="436" type="line"/>
      <point x="498" y="436" type="line"/>
      <point x="498" y="532" type="line"/>
      <point x="6" y="532" type="line"/>
      <point x="6" y="436" type="line"/>
      <point x="223" y="436" type="line"/>
      <point x="197" y="464" type="line"/>
    </contour>
  </outline>
</glyph>
<glyph name="che-cy" format="2">
  <advance width="615"/>
  <unicode hex="0447"/>
  <anchor x="416" y="0" name="bottomleft"/>
  <anchor x="594" y="0" name="bottomright"/>
  <anchor x="280" y="532" name="top"/>
  <outline>
    <contour>
      <point x="424" y="214" type="curve"/>
      <point x="424" y="298" type="line"/>
      <point x="374" y="275"/>
      <point x="322" y="262"/>
      <point x="273" y="262" type="curve" smooth="yes"/>
      <point x="197" y="262"/>
      <point x="150" y="295"/>
      <point x="150" y="368" type="curve" smooth="yes"/>
      <point x="150" y="532" type="line"/>
      <point x="40" y="532" type="line"/>
      <point x="40" y="361" type="line" smooth="yes"/>
      <point x="40" y="231"/>
      <point x="118" y="172"/>
      <point x="250" y="172" type="curve" smooth="yes"/>
      <point x="312" y="172"/>
      <point x="371" y="188"/>
    </contour>
    <contour>
      <point x="416" y="0" type="line"/>
      <point x="526" y="0" type="line"/>
      <point x="526" y="532" type="line"/>
      <point x="416" y="532" type="line"/>
    </contour>
  </outline>
</glyph>
<glyph name="dzhe-cy" format="2">
  <advance width="649"/>
  <unicode hex="045F"/>
  <outline>
    <contour>
      <point x="560" y="532" type="line"/>
      <point x="450" y="532" type="line"/>
      <point x="450" y="96" type="line"/>
      <point x="199" y="96" type="line"/>
      <point x="199" y="532" type="line"/>
      <point x="89" y="532" type="line"/>
      <point x="89" y="0" type="line"/>
      <point x="273" y="0" type="line"/>
      <point x="273" y="-121" type="line"/>
      <point x="377" y="-121" type="line"/>
      <point x="377" y="0" type="line"/>
      <point x="560" y="0" type="line"/>
    </contour>
  </outline>
</glyph>
<glyph name="Izhitsa-cy" format="2">
  <advance width="768"/>
  <unicode hex="0474"/>
  <outline>
    <contour>
      <point x="299" y="0" type="line"/>
      <point x="412" y="0" type="line"/>
      <point x="587" y="479" type="line" smooth="yes"/>
      <point x="623" y="578"/>
      <point x="660" y="607"/>
      <point x="742" y="587" type="curve"/>
      <point x="754" y="699" type="line"/>
      <point x="619" y="732"/>
      <point x="547" y="685"/>
      <point x="497" y="550" type="curve" smooth="yes"/>
      <point x="356" y="166" type="line"/>
      <point x="136" y="700" type="line"/>
      <point x="12" y="700" type="line"/>
    </contour>
  </outline>
</glyph>
<glyph name="tedescender-cy" format="2">
  <advance width="504"/>
  <unicode hex="04AD"/>
  <anchor x="254" y="0" name="bottom"/>
  <anchor x="197" y="0" name="bottomleft"/>
  <anchor x="254" y="250" name="center"/>
  <anchor x="254" y="532" name="top"/>
  <outline>
    <contour>
      <point x="197" y="0" type="line"/>
      <point x="307" y="0" type="line"/>
      <point x="307" y="464" type="line"/>
      <point x="281" y="436" type="line"/>
      <point x="498" y="436" type="line"/>
      <point x="498" y="532" type="line"/>
      <point x="6" y="532" type="line"/>
      <point x="6" y="436" type="line"/>
      <point x="223" y="436" type="line"/>
      <point x="197" y="464" type="line"/>
    </contour>
    <contour>
      <point x="286" y="-111" type="line"/>
      <point x="389" y="-111" type="line"/>
      <point x="389" y="96" type="line"/>
      <point x="197" y="96" type="line"/>
      <point x="197" y="0" type="line"/>
      <point x="312" y="0" type="line"/>
      <point x="286" y="28" type="line"/>
    </contour>
  </outline>
</glyph>
<glyph name="cheabkhasian-cy" format="2">
  <advance width="782"/>
  <unicode hex="04BD"/>
  <anchor x="472" y="0" name="bottom"/>
  <anchor x="467" y="530" name="top"/>
  <outline>
    <contour>
      <point x="242" y="228" type="line"/>
      <point x="242" y="307" type="line"/>
      <point x="184" y="307" type="line" smooth="yes"/>
      <point x="116" y="307"/>
      <point x="98" y="352"/>
      <point x="134" y="415" type="curve"/>
      <point x="42" y="433" type="line"/>
      <point x="-12" y="315"/>
      <point x="34" y="228"/>
      <point x="170" y="228" type="curve" smooth="yes"/>
    </contour>
    <contour>
      <point x="488" y="-6" type="curve" smooth="yes"/>
      <point x="581" y="-6"/>
      <point x="657" y="24"/>
      <point x="706" y="80" type="curve"/>
      <point x="645" y="151" type="line"/>
      <point x="605" y="110"/>
      <point x="554" y="90"/>
      <point x="491" y="90" type="curve" smooth="yes"/>
      <point x="377" y="90"/>
      <point x="300" y="159"/>
      <point x="300" y="260" type="curve" smooth="yes"/>
      <point x="300" y="278" type="line" smooth="yes"/>
      <point x="300" y="377"/>
      <point x="369" y="445"/>
      <point x="468" y="445" type="curve" smooth="yes"/>
      <point x="567" y="445"/>
      <point x="636" y="377"/>
      <point x="635" y="281" type="curve"/>
      <point x="681" y="307" type="line"/>
      <point x="279" y="307" type="line"/>
      <point x="279" y="228" type="line"/>
      <point x="740" y="228" type="line"/>
      <point x="742" y="239"/>
      <point x="743" y="253"/>
      <point x="743" y="262" type="curve" smooth="yes"/>
      <point x="743" y="427"/>
      <point x="629" y="538"/>
      <point x="468" y="538" type="curve" smooth="yes"/>
      <point x="307" y="538"/>
      <point x="189" y="424"/>
      <point x="189" y="266" type="curve" smooth="yes"/>
      <point x="189" y="107"/>
      <point x="308" y="-6"/>
    </contour>
  </outline>
</glyph>
<glyph name="chekhakassian-cy" format="2">
  <advance width="611"/>
  <unicode hex="04CC"/>
  <outline>
    <contour>
      <point x="246" y="192" type="curve" smooth="yes"/>
      <point x="308" y="192"/>
      <point x="367" y="207"/>
      <point x="420" y="233" type="curve"/>
      <point x="420" y="318" type="line"/>
      <point x="370" y="294"/>
      <point x="318" y="282"/>
      <point x="270" y="282" type="curve" smooth="yes"/>
      <point x="193" y="282"/>
      <point x="146" y="315"/>
      <point x="146" y="387" type="curve" smooth="yes"/>
      <point x="146" y="532" type="line"/>
      <point x="36" y="532" type="line"/>
      <point x="36" y="380" type="line" smooth="yes"/>
      <point x="36" y="251"/>
      <point x="114" y="192"/>
    </contour>
    <contour>
      <point x="320" y="-111" type="line"/>
      <point x="424" y="-111" type="line"/>
      <point x="424" y="28" type="line"/>
      <point x="398" y="0" type="line"/>
      <point x="513" y="0" type="line"/>
      <point x="513" y="91" type="line"/>
      <point x="320" y="91" type="line"/>
    </contour>
    <contour>
      <point x="412" y="0" type="line"/>
      <point x="522" y="0" type="line"/>
      <point x="522" y="532" type="line"/>
      <point x="412" y="532" type="line"/>
    </contour>
  </outline>
</glyph>
<glyph name="obarred-cy" format="2">
  <advance width="652"/>
  <unicode hex="04E9"/>
  <anchor x="326" y="532" name="top"/>
  <outline>
    <contour>
      <point x="326" y="538" type="curve" smooth="yes"/>
      <point x="161" y="538"/>
      <point x="41" y="426"/>
      <point x="41" y="266" type="curve" smooth="yes"/>
      <point x="41" y="107"/>
      <point x="161" y="-6"/>
      <point x="326" y="-6" type="curve" smooth="yes"/>
      <point x="491" y="-6"/>
      <point x="611" y="107"/>
      <point x="611" y="266" type="curve" smooth="yes"/>
      <point x="611" y="426"/>
      <point x="491" y="538"/>
    </contour>
    <contour>
      <point x="326" y="451" type="curve" smooth="yes"/>
      <point x="419" y="451"/>
      <point x="488" y="394"/>
      <point x="503" y="304" type="curve"/>
      <point x="149" y="304" type="line"/>
      <point x="164" y="395"/>
      <point x="233" y="451"/>
    </contour>
    <contour>
      <point x="326" y="81" type="curve" smooth="yes"/>
      <point x="233" y="81"/>
      <point x="164" y="138"/>
      <point x="149" y="228" type="curve"/>
      <point x="503" y="228" type="line"/>
      <point x="488" y="138"/>
      <point x="419" y="81"/>
    </contour>
  </outline>
</glyph>
<glyph name="gestrokehook-cy" format="2">
  <advance width="499"/>
  <unicode hex="04FB"/>
  <outline>
    <contour>
      <point x="114" y="0" type="line"/>
      <point x="224" y="0" type="line"/>
      <point x="224" y="436" type="line"/>
      <point x="474" y="436" type="line"/>
      <point x="474" y="532" type="line"/>
      <point x="114" y="532" type="line"/>
    </contour>
    <contour>
      <point x="132" y="-200" type="curve" smooth="yes"/>
      <point x="243" y="-200"/>
      <point x="305" y="-132"/>
      <point x="305" y="-27" type="curve" smooth="yes"/>
      <point x="305" y="96" type="line"/>
      <point x="114" y="96" type="line"/>
      <point x="114" y="0" type="line"/>
      <point x="228" y="0" type="line"/>
      <point x="195" y="23" type="line"/>
      <point x="195" y="-18" type="line" smooth="yes"/>
      <point x="195" y="-79"/>
      <point x="168" y="-110"/>
      <point x="119" y="-110" type="curve" smooth="yes"/>
      <point x="91" y="-110"/>
      <point x="63" y="-100"/>
      <point x="44" y="-86" type="curve"/>
      <point x="13" y="-167" type="line"/>
      <point x="42" y="-189"/>
      <point x="86" y="-200"/>
    </contour>
    <contour>
      <point x="30" y="215" type="line"/>
      <point x="430" y="215" type="line"/>
      <point x="430" y="292" type="line"/>
      <point x="30" y="292" type="line"/>
    </contour>
  </outline>
</glyph>
<glyph name="bitcoin" format="2">
  <advance width="811"/>
  <unicode hex="20BF"/>
  <anchor x="404" y="0" name="bottom"/>
  <anchor x="404" y="700" name="top"/>
  <outline>
    <contour>
      <point x="282" y="47" type="line"/>
      <point x="282" y="-120" type="line"/>
      <point x="355" y="-120" type="line"/>
      <point x="355" y="47" type="line"/>
    </contour>
    <contour>
      <point x="439" y="47" type="line"/>
      <point x="439" y="-120" type="line"/>
      <point x="512" y="-120" type="line"/>
      <point x="512" y="47" type="line"/>
    </contour>
    <contour>
      <point x="355" y="652" type="line"/>
      <point x="355" y="820" type="line"/>
      <point x="282" y="820" type="line"/>
      <point x="282" y="652" type="line"/>
    </contour>
    <contour>
      <point x="512" y="652" type="line"/>
      <point x="512" y="820" type="line"/>
      <point x="439" y="820" type="line"/>
      <point x="439" y="652" type="line"/>
    </contour>
    <contour>
      <point x="125" y="0" type="line"/>
      <point x="466" y="0" type="line" smooth="yes"/>
      <point x="644" y="0"/>
      <point x="736" y="70"/>
      <point x="736" y="190" type="curve" smooth="yes"/>
      <point x="736" y="310"/>
      <point x="648" y="374"/>
      <point x="537" y="374" type="curve"/>
      <point x="519" y="341" type="line"/>
      <point x="613" y="341"/>
      <point x="700" y="406"/>
      <point x="700" y="518" type="curve" smooth="yes"/>
      <point x="700" y="630"/>
      <point x="610" y="700"/>
      <point x="446" y="700" type="curve" smooth="yes"/>
      <point x="125" y="700" type="line"/>
    </contour>
    <contour>
      <point x="239" y="93" type="line"/>
      <point x="239" y="607" type="line"/>
      <point x="434" y="607" type="line" smooth="yes"/>
      <point x="530" y="607"/>
      <point x="585" y="573"/>
      <point x="585" y="504" type="curve" smooth="yes"/>
      <point x="585" y="435"/>
      <point x="530" y="401"/>
      <point x="434" y="401" type="curve" smooth="yes"/>
      <point x="230" y="401" type="line"/>
      <point x="230" y="308" type="line"/>
      <point x="460" y="308" type="line" smooth="yes"/>
      <point x="564" y="308"/>
      <point x="621" y="275"/>
      <point x="621" y="200" type="curve" smooth="yes"/>
      <point x="621" y="125"/>
      <point x="564" y="93"/>
      <point x="460" y="93" type="curve" smooth="yes"/>
    </contour>
  </outline>
</glyph>
<glyph name="downArrow" format="2">
  <advance width="600"/>
  <unicode hex="2193"/>
  <outline>
    <contour>
      <point x="518" y="281" type="line"/>
      <point x="310" y="148" type="line"/>
      <point x="100" y="281" type="line"/>
      <point x="100" y="188" type="line"/>
      <point x="310" y="45" type="line"/>
      <point x="518" y="188" type="line"/>
    </contour>
    <contour>
      <point x="353" y="498" type="line"/>
      <point x="266" y="498" type="line"/>
      <point x="266" y="130" type="line"/>
      <point x="353" y="130" type="line"/>
    </contour>
  </outline>
</glyph>
<glyph name="A.ss01" format="2">
  <advance width="799"/>
  <anchor x="399" y="0" name="bottom"/>
  <anchor x="705" y="0" name="ogonek"/>
  <anchor x="399" y="700" name="top"/>
  <anchor x="74" y="700" name="topleft"/>
  <outline>
    <contour>
      <point x="94" y="0" type="line"/>
      <point x="206" y="0" type="line"/>
      <point x="206" y="401" type="line" smooth="yes"/>
      <point x="206" y="540"/>
      <point x="281" y="607"/>
      <point x="399" y="607" type="curve" smooth="yes"/>
      <point x="516" y="607"/>
      <point x="591" y="540"/>
      <point x="591" y="401" type="curve" smooth="yes"/>
      <point x="591" y="0" type="line"/>
      <point x="705" y="0" type="line"/>
      <point x="705" y="390" type="line" smooth="yes"/>
      <point x="705" y="599"/>
      <point x="583" y="709"/>
      <point x="399" y="709" type="curve" smooth="yes"/>
      <point x="216" y="709"/>
      <point x="94" y="599"/>
      <point x="94" y="390" type="curve" smooth="yes"/>
    </contour>
    <contour>
      <point x="166" y="186" type="line"/>
      <point x="632" y="186" type="line"/>
      <point x="632" y="285" type="line"/>
      <point x="166" y="285" type="line"/>
    </contour>
  </outline>
</glyph>
<glyph name="Aogonek.loclNAV" format="2">
  <advance width="740"/>
  <anchor x="370" y="0" name="bottom"/>
  <anchor x="743" y="0" name="ogonek"/>
  <anchor x="370" y="700" name="top"/>
  <anchor x="113" y="700" name="topleft"/>
  <outline>
    <contour>
      <point x="-3" y="0" type="line"/>
      <point x="115" y="0" type="line"/>
      <point x="392" y="637" type="line"/>
      <point x="346" y="637" type="line"/>
      <point x="623" y="0" type="line"/>
      <point x="743" y="0" type="line"/>
      <point x="426" y="700" type="line"/>
      <point x="313" y="700" type="line"/>
    </contour>
    <contour>
      <point x="137" y="168" type="line"/>
      <point x="586" y="168" type="line"/>
      <point x="554" y="260" type="line"/>
      <point x="168" y="260" type="line"/>
    </contour>
    <contour>
      <point x="384" y="-226" type="curve" smooth="yes"/>
      <point x="419" y="-226"/>
      <point x="453" y="-217"/>
      <point x="478" y="-203" type="curve"/>
      <point x="458" y="-147" type="line"/>
      <point x="442" y="-157"/>
      <point x="418" y="-163"/>
      <point x="397" y="-163" type="curve" smooth="yes"/>
      <point x="362" y="-163"/>
      <point x="337" y="-144"/>
      <point x="337" y="-113" type="curve" smooth="yes"/>
      <point x="337" y="-78"/>
      <point x="364" y="-52"/>
      <point x="433" y="-23" type="curve"/>
      <point x="407" y="26" type="line"/>
      <point x="299" y="-11"/>
      <point x="260" y="-68"/>
      <point x="260" y="-123" type="curve" smooth="yes"/>
      <point x="260" y="-182"/>
      <point x="306" y="-226"/>
    </contour>
  </outline>
</glyph>
<glyph name="Ef-cy.ss01" format="2">
  <advance width="933"/>
  <outline>
    <contour>
      <point x="467" y="-8" type="curve" smooth="yes"/>
      <point x="721" y="-8"/>
      <point x="886" y="145"/>
      <point x="886" y="350" type="curve" smooth="yes"/>
      <point x="886" y="555"/>
      <point x="721" y="708"/>
      <point x="467" y="708" type="curve" smooth="yes"/>
      <point x="212" y="708"/>
      <point x="47" y="555"/>
      <point x="47" y="350" type="curve" smooth="yes"/>
      <point x="47" y="145"/>
      <point x="212" y="-8"/>
    </contour>
    <contour>
      <point x="467" y="93" type="curve" smooth="yes"/>
      <point x="276" y="93"/>
      <point x="160" y="201"/>
      <point x="160" y="350" type="curve" smooth="yes"/>
      <point x="160" y="499"/>
      <point x="276" y="606"/>
      <point x="467" y="606" type="curve" smooth="yes"/>
      <point x="658" y="606"/>
      <point x="773" y="499"/>
      <point x="773" y="350" type="curve" smooth="yes"/>
      <point x="773" y="201"/>
      <point x="658" y="93"/>
    </contour>
    <contour>
      <point x="413" y="35" type="line"/>
      <point x="520" y="35" type="line"/>
      <point x="520" y="661" type="line"/>
      <point x="413" y="661" type="line"/>
    </contour>
  </outline>
</glyph>
<glyph name="Eogonek.loclNAV.ss01" format="2">
  <advance width="649"/>
  <anchor x="353" y="0" name="bottom"/>
  <anchor x="599" y="0" name="ogonek"/>
  <anchor x="353" y="700" name="top"/>
  <anchor x="37" y="700" name="topleft"/>
  <outline>
    <contour>
      <point x="397" y="35" type="line"/>
      <point x="292" y="-7"/>
      <point x="253" y="-66"/>
      <point x="253" y="-122" type="curve" smooth="yes"/>
      <point x="253" y="-183"/>
      <point x="299" y="-226"/>
      <point x="378" y="-226" type="curve" smooth="yes"/>
      <point x="412" y="-226"/>
      <point x="446" y="-217"/>
      <point x="471" y="-203" type="curve"/>
      <point x="451" y="-147" type="line"/>
      <point x="435" y="-157"/>
      <point x="411" y="-163"/>
      <point x="390" y="-163" type="curve" smooth="yes"/>
      <point x="355" y="-163"/>
      <point x="330" y="-145"/>
      <point x="330" y="-113" type="curve" smooth="yes"/>
      <point x="330" y="-67"/>
      <point x="386" y="-15"/>
      <point x="460" y="-1" type="curve" smooth="yes"/>
      <point x="524" y="12"/>
      <point x="584" y="30"/>
      <point x="633" y="70" type="curve"/>
      <point x="595" y="159" type="line"/>
      <point x="539" y="115"/>
      <point x="450" y="89"/>
      <point x="359" y="89" type="curve" smooth="yes"/>
      <point x="224" y="89"/>
      <point x="163" y="134"/>
      <point x="163" y="201" type="curve" smooth="yes"/>
      <point x="163" y="272"/>
      <point x="225" y="305"/>
      <point x="322" y="305" type="curve" smooth="yes"/>
      <point x="510" y="305" type="line"/>
      <point x="510" y="403" type="line"/>
      <point x="328" y="403" type="line" smooth="yes"/>
      <point x="240" y="403"/>
      <point x="193" y="438"/>
      <point x="193" y="502" type="curve" smooth="yes"/>
      <point x="193" y="565"/>
      <point x="251" y="611"/>
      <point x="373" y="611" type="curve" smooth="yes"/>
      <point x="443" y="611"/>
      <point x="509" y="597"/>
      <point x="572" y="564" type="curve"/>
      <point x="605" y="656" type="line"/>
      <point x="544" y="689"/>
      <point x="457" y="709"/>
      <point x="369" y="709" type="curve" smooth="yes"/>
      <point x="172" y="709"/>
      <point x="78" y="617"/>
      <point x="78" y="510" type="curve" smooth="yes"/>
      <point x="78" y="413"/>
      <point x="148" y="339"/>
      <point x="249" y="339" type="curve"/>
      <point x="244" y="371" type="line"/>
      <point x="141" y="371"/>
      <point x="48" y="303"/>
      <point x="48" y="193" type="curve" smooth="yes"/>
      <point x="48" y="76"/>
      <point x="152" y="-9"/>
      <point x="354" y="-9" type="curve" smooth="yes"/>
      <point x="368" y="-9"/>
      <point x="382" y="-9"/>
      <point x="396" y="-8" type="curve"/>
    </contour>
  </outline>
</glyph>
<glyph name="Hardsign-cy.ss01" format="2">
  <advance width="874"/>
  <outline>
    <contour>
      <point x="245" y="601" type="line"/>
      <point x="359" y="700" type="line"/>
      <point x="15" y="700" type="line"/>
      <point x="15" y="601" type="line"/>
    </contour>
    <contour>
      <point x="537" y="-9" type="curve" smooth="yes"/>
      <point x="726" y="-9"/>
      <point x="836" y="84"/>
      <point x="836" y="238" type="curve" smooth="yes"/>
      <point x="836" y="395"/>
      <point x="726" y="483"/>
      <point x="576" y="483" type="curve" smooth="yes"/>
      <point x="503" y="483"/>
      <point x="420" y="462"/>
      <point x="336" y="418" type="curve"/>
      <point x="347" y="315" type="line"/>
      <point x="409" y="366"/>
      <point x="481" y="390"/>
      <point x="544" y="390" type="curve" smooth="yes"/>
      <point x="641" y="390"/>
      <point x="720" y="335"/>
      <point x="720" y="234" type="curve" smooth="yes"/>
      <point x="720" y="144"/>
      <point x="654" y="86"/>
      <point x="541" y="86" type="curve" smooth="yes"/>
      <point x="426" y="86"/>
      <point x="359" y="147"/>
      <point x="359" y="249" type="curve" smooth="yes"/>
      <point x="359" y="700" type="line"/>
      <point x="246" y="700" type="line"/>
      <point x="246" y="246" type="line" smooth="yes"/>
      <point x="246" y="82"/>
      <point x="349" y="-9"/>
    </contour>
  </outline>
</glyph>
<glyph name="Iacute_J.loclNLD" format="2">
  <advance width="721"/>
  <outline>
    <contour>
      <point x="327" y="-6" type="curve" smooth="yes"/>
      <point x="508" y="-6"/>
      <point x="627" y="103"/>
      <point x="627" y="311" type="curve" smooth="yes"/>
      <point x="627" y="700" type="line"/>
      <point x="512" y="700" type="line"/>
      <point x="512" y="306" type="line" smooth="yes"/>
      <point x="512" y="162"/>
      <point x="445" y="95"/>
      <point x="323" y="95" type="curve" smooth="yes"/>
      <point x="255" y="95"/>
      <point x="184" y="117"/>
      <point x="125" y="158" type="curve"/>
      <point x="81" y="68" type="line"/>
      <point x="143" y="24"/>
      <point x="230" y="-6"/>
    </contour>
    <contour>
      <point x="94" y="312" type="line"/>
      <point x="208" y="312" type="line"/>
      <point x="208" y="700" type="line"/>
      <point x="94" y="700" type="line"/>
    </contour>
    <contour>
      <point x="97" y="757" type="line"/>
      <point x="179" y="757" type="line"/>
      <point x="350" y="891" type="line"/>
      <point x="233" y="891" type="line"/>
    </contour>
    <contour>
      <point x="516" y="757" type="line"/>
      <point x="598" y="757" type="line"/>
      <point x="769" y="891" type="line"/>
      <point x="652" y="891" type="line"/>
    </contour>
  </outline>
</glyph>
<glyph name="Q.ss01.BRACKET.170" format="2">
  <advance width="841"/>
  <outline>
    <contour>
      <point x="363" y="-135" type="line"/>
      <point x="478" y="-135" type="line"/>
      <point x="478" y="13" type="line"/>
      <point x="363" y="13" type="line"/>
    </contour>
    <contour>
      <point x="421" y="-9" type="curve" smooth="yes"/>
      <point x="636" y="-9"/>
      <point x="795" y="143"/>
      <point x="795" y="350" type="curve" smooth="yes"/>
      <point x="795" y="557"/>
      <point x="636" y="709"/>
      <point x="421" y="709" type="curve" smooth="yes"/>
      <point x="205" y="709"/>
      <point x="46" y="556"/>
      <point x="46" y="350" type="curve" smooth="yes"/>
      <point x="46" y="144"/>
      <point x="205" y="-9"/>
    </contour>
    <contour>
      <point x="421" y="93" type="curve" smooth="yes"/>
      <point x="271" y="93"/>
      <point x="161" y="202"/>
      <point x="161" y="350" type="curve" smooth="yes"/>
      <point x="161" y="498"/>
      <point x="271" y="607"/>
      <point x="421" y="607" type="curve" smooth="yes"/>
      <point x="570" y="607"/>
      <point x="680" y="498"/>
      <point x="680" y="350" type="curve" smooth="yes"/>
      <point x="680" y="202"/>
      <point x="570" y="93"/>
    </contour>
  </outline>
</glyph>
<glyph name="Udieresis.ss01.alt.BRACKET.133" format="2">
  <advance width="794"/>
  <outline>
    <contour>
      <point x="360" y="-9" type="curve" smooth="yes"/>
      <point x="481" y="-9"/>
      <point x="572" y="39"/>
      <point x="617" y="152" type="curve"/>
      <point x="584" y="170" type="line"/>
      <point x="584" y="0" type="line"/>
      <point x="694" y="0" type="line"/>
      <point x="694" y="700" type="line"/>
      <point x="580" y="700" type="line"/>
      <point x="580" y="304" type="line" smooth="yes"/>
      <point x="580" y="160"/>
      <point x="499" y="93"/>
      <point x="384" y="93" type="curve" smooth="yes"/>
      <point x="278" y="93"/>
      <point x="208" y="158"/>
      <point x="208" y="290" type="curve" smooth="yes"/>
      <point x="208" y="700" type="line"/>
      <point x="94" y="700" type="line"/>
      <point x="94" y="286" type="line" smooth="yes"/>
      <point x="94" y="95"/>
      <point x="196" y="-9"/>
    </contour>
    <contour>
      <point x="394" y="461" type="curve" smooth="yes"/>
      <point x="425" y="461"/>
      <point x="450" y="484"/>
      <point x="450" y="517" type="curve" smooth="yes"/>
      <point x="450" y="550"/>
      <point x="425" y="573"/>
      <point x="394" y="573" type="curve" smooth="yes"/>
      <point x="363" y="573"/>
      <point x="338" y="550"/>
      <point x="338" y="517" type="curve" smooth="yes"/>
      <point x="338" y="484"/>
      <point x="363" y="461"/>
    </contour>
    <contour>
      <point x="394" y="594" type="curve" smooth="yes"/>
      <point x="425" y="594"/>
      <point x="450" y="617"/>
      <point x="450" y="650" type="curve" smooth="yes"/>
      <point x="450" y="683"/>
      <point x="425" y="706"/>
      <point x="394" y="706" type="curve" smooth="yes"/>
      <point x="363" y="706"/>
      <point x="338" y="683"/>
      <point x="338" y="650" type="curve" smooth="yes"/>
      <point x="338" y="617"/>
      <point x="363" y="594"/>
    </contour>
  </outline>
</glyph>
<glyph name="Uogonek.loclNAV.ss01" format="2">
  <advance width="794"/>
  <anchor x="392" y="700" name="top"/>
  <anchor x="651" y="700" name="topright"/>
  <outline>
    <contour>
      <point x="431" y="35" type="line"/>
      <point x="326" y="-4"/>
      <point x="292" y="-66"/>
      <point x="292" y="-122" type="curve" smooth="yes"/>
      <point x="292" y="-183"/>
      <point x="338" y="-226"/>
      <point x="417" y="-226" type="curve" smooth="yes"/>
      <point x="451" y="-226"/>
      <point x="485" y="-217"/>
      <point x="510" y="-203" type="curve"/>
      <point x="490" y="-147" type="line"/>
      <point x="474" y="-157"/>
      <point x="450" y="-163"/>
      <point x="429" y="-163" type="curve" smooth="yes"/>
      <point x="394" y="-163"/>
      <point x="369" y="-147"/>
      <point x="369" y="-109" type="curve" smooth="yes"/>
      <point x="369" y="-68"/>
      <point x="398" y="-38"/>
      <point x="471" y="2" type="curve" smooth="yes"/>
      <point x="531" y="34"/>
      <point x="582" y="65"/>
      <point x="617" y="152" type="curve"/>
      <point x="584" y="170" type="line"/>
      <point x="584" y="0" type="line"/>
      <point x="694" y="0" type="line"/>
      <point x="694" y="700" type="line"/>
      <point x="580" y="700" type="line"/>
      <point x="580" y="304" type="line" smooth="yes"/>
      <point x="580" y="160"/>
      <point x="498" y="93"/>
      <point x="387" y="93" type="curve" smooth="yes"/>
      <point x="277" y="93"/>
      <point x="208" y="158"/>
      <point x="208" y="290" type="curve" smooth="yes"/>
      <point x="208" y="700" type="line"/>
      <point x="94" y="700" type="line"/>
      <point x="94" y="286" type="line" smooth="yes"/>
      <point x="94" y="95"/>
      <point x="189" y="-9"/>
      <point x="377" y="-9" type="curve" smooth="yes"/>
      <point x="402" y="-9"/>
      <point x="431" y="-6"/>
      <point x="458" y="0" type="curve"/>
    </contour>
  </outline>
</glyph>
<glyph name="ae.sc" format="2">
  <advance width="886"/>
  <anchor x="461" y="0" name="bottom"/>
  <anchor x="461" y="570" name="top"/>
  <outline>
    <contour>
      <point x="-3" y="0" type="line"/>
      <point x="112" y="0" type="line"/>
      <point x="414" y="525" type="line"/>
      <point x="346" y="478" type="line"/>
      <point x="443" y="478" type="line"/>
      <point x="443" y="570" type="line"/>
      <point x="330" y="570" type="line"/>
    </contour>
    <contour>
      <point x="160" y="129" type="line"/>
      <point x="443" y="129" type="line"/>
      <point x="443" y="217" type="line"/>
      <point x="165" y="217" type="line"/>
    </contour>
    <contour>
      <point x="500" y="334" type="line"/>
      <point x="500" y="244" type="line"/>
      <point x="794" y="244" type="line"/>
      <point x="794" y="334" type="line"/>
    </contour>
    <contour>
      <point x="517" y="92" type="line"/>
      <point x="517" y="478" type="line"/>
      <point x="830" y="478" type="line"/>
      <point x="830" y="570" type="line"/>
      <point x="406" y="570" type="line"/>
      <point x="406" y="0" type="line"/>
      <point x="841" y="0" type="line"/>
      <point x="841" y="92" type="line"/>
    </contour>
  </outline>
</glyph>
<glyph name="aogonek.loclNAV" format="2">
  <advance width="602"/>
  <anchor x="290" y="0" name="bottom"/>
  <anchor x="520" y="0" name="ogonek"/>
  <anchor x="294" y="532" name="top"/>
  <outline>
    <contour>
      <point x="415" y="0" type="line"/>
      <point x="520" y="0" type="line"/>
      <point x="520" y="316" type="line" smooth="yes"/>
      <point x="520" y="466"/>
      <point x="434" y="538"/>
      <point x="285" y="538" type="curve" smooth="yes"/>
      <point x="199" y="538"/>
      <point x="118" y="515"/>
      <point x="62" y="471" type="curve"/>
      <point x="107" y="389" type="line"/>
      <point x="148" y="422"/>
      <point x="211" y="443"/>
      <point x="272" y="443" type="curve" smooth="yes"/>
      <point x="364" y="443"/>
      <point x="410" y="398"/>
      <point x="410" y="322" type="curve" smooth="yes"/>
      <point x="410" y="132" type="line"/>
      <point x="415" y="110" type="line"/>
    </contour>
    <contour>
      <point x="336" y="69" type="line"/>
      <point x="217" y="-3"/>
      <point x="178" y="-66"/>
      <point x="178" y="-122" type="curve" smooth="yes"/>
      <point x="178" y="-183"/>
      <point x="224" y="-226"/>
      <point x="303" y="-226" type="curve" smooth="yes"/>
      <point x="337" y="-226"/>
      <point x="371" y="-217"/>
      <point x="396" y="-203" type="curve"/>
      <point x="376" y="-147" type="line"/>
      <point x="360" y="-157"/>
      <point x="336" y="-163"/>
      <point x="315" y="-163" type="curve" smooth="yes"/>
      <point x="280" y="-163"/>
      <point x="255" y="-145"/>
      <point x="255" y="-113" type="curve" smooth="yes"/>
      <point x="255" y="-60"/>
      <point x="298" y="-30"/>
      <point x="343" y="0" type="curve" smooth="yes"/>
      <point x="379" y="25"/>
      <point x="415" y="50"/>
      <point x="430" y="89" type="curve"/>
      <point x="410" y="165" type="line"/>
      <point x="387" y="108"/>
      <point x="331" y="78"/>
      <point x="265" y="78" type="curve" smooth="yes"/>
      <point x="197" y="78"/>
      <point x="156" y="108"/>
      <point x="156" y="156" type="curve" smooth="yes"/>
      <point x="156" y="197"/>
      <point x="179" y="231"/>
      <point x="270" y="231" type="curve" smooth="yes"/>
      <point x="426" y="231" type="line"/>
      <point x="426" y="310" type="line"/>
      <point x="265" y="310" type="line" smooth="yes"/>
      <point x="104" y="310"/>
      <point x="47" y="239"/>
      <point x="47" y="152" type="curve" smooth="yes"/>
      <point x="47" y="59"/>
      <point x="125" y="-6"/>
      <point x="246" y="-6" type="curve" smooth="yes"/>
      <point x="269" y="-6"/>
      <point x="290" y="-4"/>
      <point x="310" y="0" type="curve"/>
    </contour>
  </outline>
</glyph>
<glyph name="backslash.case" format="2">
  <advance width="361"/>
  <outline>
    <contour>
      <point x="390" y="-100" type="line"/>
      <point x="60" y="842" type="line"/>
      <point x="-39" y="842" type="line"/>
      <point x="291" y="-100" type="line"/>
    </contour>
  </outline>
</glyph>
<glyph name="brevecomb.narrow" format="2">
  <anchor x="300" y="532" name="_top"/>
  <anchor x="300" y="699" name="top"/>
  <outline>
    <contour>
      <point x="300" y="601" type="curve" smooth="yes"/>
      <point x="381" y="601"/>
      <point x="442" y="654"/>
      <point x="443" y="741" type="curve"/>
      <point x="373" y="741" type="line"/>
      <point x="373" y="693"/>
      <point x="345" y="663"/>
      <point x="300" y="663" type="curve" smooth="yes"/>
      <point x="255" y="663"/>
      <point x="227" y="693"/>
      <point x="227" y="741" type="curve"/>
      <point x="157" y="741" type="line"/>
      <point x="158" y="654"/>
      <point x="219" y="601"/>
    </contour>
  </outline>
</glyph>
<glyph name="circumflexcomb.loclVIET" format="2">
  <anchor x="300" y="532" name="_top"/>
  <anchor x="300" y="667" name="top"/>
  <outline>
    <contour>
      <point x="114" y="607" type="line"/>
      <point x="212" y="607" type="line"/>
      <point x="346" y="690" type="line"/>
      <point x="254" y="690" type="line"/>
      <point x="388" y="607" type="line"/>
      <point x="486" y="607" type="line"/>
      <point x="350" y="711" type="line"/>
      <point x="250" y="711" type="line"/>
    </contour>
  </outline>
</glyph>
<glyph name="descTail-cy.case" format="2">
  <advance width="258"/>
  <anchor x="0" y="0" name="_bottomleft"/>
  <outline>
    <contour>
      <point x="50" y="-151" type="line"/>
      <point x="141" y="-151" type="line"/>
      <point x="214" y="99" type="line"/>
      <point x="0" y="99" type="line"/>
      <point x="0" y="0" type="line"/>
      <point x="135" y="0" type="line"/>
      <point x="92" y="29" type="line"/>
    </contour>
  </outline>
</glyph>
<glyph name="descTail-cy" format="2">
  <advance width="314"/>
  <anchor x="62" y="0" name="_bottomleft"/>
  <outline>
    <contour>
      <point x="107" y="-111" type="line"/>
      <point x="195" y="-111" type="line"/>
      <point x="256" y="96" type="line"/>
      <point x="62" y="96" type="line"/>
      <point x="62" y="0" type="line"/>
      <point x="208" y="0" type="line"/>
      <point x="141" y="28" type="line"/>
    </contour>
  </outline>
</glyph>
<glyph name="descender-cy.case" format="2">
  <advance width="351"/>
  <anchor x="44" y="0" name="_bottomleft"/>
  <outline>
    <contour>
      <point x="156" y="-151" type="line"/>
      <point x="262" y="-151" type="line"/>
      <point x="262" y="99" type="line"/>
      <point x="44" y="99" type="line"/>
      <point x="44" y="0" type="line"/>
      <point x="184" y="0" type="line"/>
      <point x="156" y="29" type="line"/>
    </contour>
  </outline>
</glyph>
<glyph name="eng.sc.ss01" format="2">
  <advance width="688"/>
  <outline>
    <contour>
      <point x="377" y="579" type="curve" smooth="yes"/>
      <point x="275" y="579"/>
      <point x="202" y="538"/>
      <point x="166" y="458" type="curve"/>
      <point x="198" y="437" type="line"/>
      <point x="198" y="570" type="line"/>
      <point x="92" y="570" type="line"/>
      <point x="92" y="0" type="line"/>
      <point x="203" y="0" type="line"/>
      <point x="203" y="331" type="line" smooth="yes"/>
      <point x="203" y="426"/>
      <point x="261" y="483"/>
      <point x="355" y="483" type="curve" smooth="yes"/>
      <point x="442" y="483"/>
      <point x="491" y="430"/>
      <point x="491" y="336" type="curve" smooth="yes"/>
      <point x="491" y="33" type="line" smooth="yes"/>
      <point x="491" y="-35"/>
      <point x="465" y="-67"/>
      <point x="408" y="-67" type="curve" smooth="yes"/>
      <point x="367" y="-67"/>
      <point x="331" y="-52"/>
      <point x="306" y="-26" type="curve"/>
      <point x="258" y="-109" type="line"/>
      <point x="294" y="-144"/>
      <point x="351" y="-164"/>
      <point x="409" y="-164" type="curve" smooth="yes"/>
      <point x="537" y="-164"/>
      <point x="602" y="-92"/>
      <point x="602" y="44" type="curve" smooth="yes"/>
      <point x="602" y="340" type="line" smooth="yes"/>
      <point x="602" y="490"/>
      <point x="518" y="579"/>
    </contour>
  </outline>
</glyph>
<glyph name="eogonek.loclNAV" format="2">
  <advance width="617"/>
  <anchor x="309" y="0" name="bottom"/>
  <anchor x="524" y="0" name="ogonek"/>
  <anchor x="309" y="532" name="top"/>
  <outline>
    <contour>
      <point x="357" y="35" type="line"/>
      <point x="252" y="-7"/>
      <point x="213" y="-66"/>
      <point x="213" y="-122" type="curve" smooth="yes"/>
      <point x="213" y="-183"/>
      <point x="259" y="-226"/>
      <point x="338" y="-226" type="curve" smooth="yes"/>
      <point x="372" y="-226"/>
      <point x="406" y="-217"/>
      <point x="431" y="-203" type="curve"/>
      <point x="411" y="-147" type="line"/>
      <point x="395" y="-157"/>
      <point x="371" y="-163"/>
      <point x="350" y="-163" type="curve" smooth="yes"/>
      <point x="315" y="-163"/>
      <point x="290" y="-146"/>
      <point x="290" y="-110" type="curve" smooth="yes"/>
      <point x="290" y="-58"/>
      <point x="344" y="-31"/>
      <point x="413" y="-2" type="curve" smooth="yes"/>
      <point x="469" y="22"/>
      <point x="515" y="44"/>
      <point x="542" y="80" type="curve"/>
      <point x="482" y="151" type="line"/>
      <point x="444" y="110"/>
      <point x="394" y="90"/>
      <point x="333" y="90" type="curve" smooth="yes"/>
      <point x="222" y="90"/>
      <point x="148" y="159"/>
      <point x="148" y="260" type="curve" smooth="yes"/>
      <point x="148" y="278" type="line" smooth="yes"/>
      <point x="148" y="377"/>
      <point x="215" y="445"/>
      <point x="311" y="445" type="curve" smooth="yes"/>
      <point x="407" y="445"/>
      <point x="474" y="377"/>
      <point x="473" y="281" type="curve"/>
      <point x="517" y="307" type="line"/>
      <point x="127" y="307" type="line"/>
      <point x="127" y="228" type="line"/>
      <point x="575" y="228" type="line"/>
      <point x="576" y="239"/>
      <point x="577" y="252"/>
      <point x="577" y="266" type="curve" smooth="yes"/>
      <point x="577" y="426"/>
      <point x="467" y="538"/>
      <point x="311" y="538" type="curve" smooth="yes"/>
      <point x="155" y="538"/>
      <point x="40" y="424"/>
      <point x="40" y="266" type="curve" smooth="yes"/>
      <point x="40" y="107"/>
      <point x="155" y="-6"/>
      <point x="330" y="-6" type="curve" smooth="yes"/>
      <point x="345" y="-6"/>
      <point x="360" y="-5"/>
      <point x="374" y="-4" type="curve"/>
    </contour>
  </outline>
</glyph>
<glyph name="eogonek.loclNAV.sc.ss01" format="2">
  <advance width="557"/>
  <anchor x="298" y="0" name="bottom"/>
  <anchor x="503" y="0" name="ogonek"/>
  <anchor x="298" y="570" name="top"/>
  <anchor x="27" y="570" name="topleft"/>
  <outline>
    <contour>
      <point x="342" y="35" type="line"/>
      <point x="237" y="-7"/>
      <point x="198" y="-66"/>
      <point x="198" y="-122" type="curve" smooth="yes"/>
      <point x="198" y="-183"/>
      <point x="244" y="-226"/>
      <point x="323" y="-226" type="curve" smooth="yes"/>
      <point x="357" y="-226"/>
      <point x="391" y="-217"/>
      <point x="416" y="-203" type="curve"/>
      <point x="396" y="-147" type="line"/>
      <point x="380" y="-157"/>
      <point x="356" y="-163"/>
      <point x="335" y="-163" type="curve" smooth="yes"/>
      <point x="300" y="-163"/>
      <point x="275" y="-146"/>
      <point x="275" y="-110" type="curve" smooth="yes"/>
      <point x="275" y="-47"/>
      <point x="352" y="-20"/>
      <point x="425" y="5" type="curve" smooth="yes"/>
      <point x="470" y="20"/>
      <point x="507" y="33"/>
      <point x="533" y="53" type="curve"/>
      <point x="497" y="139" type="line"/>
      <point x="450" y="104"/>
      <point x="381" y="83"/>
      <point x="300" y="83" type="curve" smooth="yes"/>
      <point x="198" y="83"/>
      <point x="151" y="117"/>
      <point x="151" y="169" type="curve" smooth="yes"/>
      <point x="151" y="243"/>
      <point x="247" y="243"/>
      <point x="265" y="243" type="curve" smooth="yes"/>
      <point x="431" y="243" type="line"/>
      <point x="431" y="333" type="line"/>
      <point x="272" y="333" type="line" smooth="yes"/>
      <point x="208" y="333"/>
      <point x="175" y="358"/>
      <point x="175" y="402" type="curve" smooth="yes"/>
      <point x="175" y="452"/>
      <point x="219" y="487"/>
      <point x="317" y="487" type="curve" smooth="yes"/>
      <point x="373" y="487"/>
      <point x="430" y="475"/>
      <point x="479" y="448" type="curve"/>
      <point x="511" y="536" type="line"/>
      <point x="460" y="563"/>
      <point x="387" y="579"/>
      <point x="312" y="579" type="curve" smooth="yes"/>
      <point x="144" y="579"/>
      <point x="63" y="501"/>
      <point x="63" y="410" type="curve" smooth="yes"/>
      <point x="63" y="331"/>
      <point x="120" y="276"/>
      <point x="207" y="276" type="curve"/>
      <point x="203" y="305" type="line"/>
      <point x="109" y="305"/>
      <point x="39" y="245"/>
      <point x="39" y="160" type="curve" smooth="yes"/>
      <point x="39" y="64"/>
      <point x="127" y="-9"/>
      <point x="298" y="-9" type="curve" smooth="yes"/>
      <point x="318" y="-9"/>
      <point x="336" y="-8"/>
      <point x="354" y="-6" type="curve"/>
    </contour>
  </outline>
</glyph>
<glyph name="eogonek.loclNAV.ss01" format="2">
  <advance width="616"/>
  <anchor x="307" y="0" name="bottom"/>
  <anchor x="445" y="0" name="ogonek"/>
  <anchor x="307" y="532" name="top"/>
  <outline>
    <contour>
      <point x="338" y="-226" type="curve" smooth="yes"/>
      <point x="372" y="-226"/>
      <point x="406" y="-217"/>
      <point x="431" y="-203" type="curve"/>
      <point x="411" y="-147" type="line"/>
      <point x="395" y="-157"/>
      <point x="371" y="-163"/>
      <point x="350" y="-163" type="curve" smooth="yes"/>
      <point x="315" y="-163"/>
      <point x="290" y="-146"/>
      <point x="290" y="-110" type="curve" smooth="yes"/>
      <point x="290" y="-58"/>
      <point x="344" y="-31"/>
      <point x="413" y="-2" type="curve" smooth="yes"/>
      <point x="469" y="22"/>
      <point x="515" y="44"/>
      <point x="542" y="80" type="curve"/>
      <point x="482" y="151" type="line"/>
      <point x="444" y="110"/>
      <point x="394" y="90"/>
      <point x="333" y="90" type="curve" smooth="yes"/>
      <point x="220" y="90"/>
      <point x="147" y="157"/>
      <point x="147" y="272" type="curve" smooth="yes"/>
      <point x="147" y="378"/>
      <point x="214" y="445"/>
      <point x="310" y="445" type="curve" smooth="yes"/>
      <point x="406" y="445"/>
      <point x="473" y="377"/>
      <point x="472" y="281" type="curve"/>
      <point x="512" y="337" type="line"/>
      <point x="129" y="264" type="line"/>
      <point x="132" y="186" type="line"/>
      <point x="576" y="272" type="line"/>
      <point x="574" y="437"/>
      <point x="457" y="538"/>
      <point x="310" y="538" type="curve" smooth="yes"/>
      <point x="154" y="538"/>
      <point x="40" y="424"/>
      <point x="40" y="266" type="curve" smooth="yes"/>
      <point x="40" y="107"/>
      <point x="155" y="-6"/>
      <point x="330" y="-6" type="curve" smooth="yes"/>
      <point x="345" y="-6"/>
      <point x="360" y="-5"/>
      <point x="374" y="-4" type="curve"/>
      <point x="357" y="35" type="line"/>
      <point x="252" y="-7"/>
      <point x="213" y="-66"/>
      <point x="213" y="-122" type="curve" smooth="yes"/>
      <point x="213" y="-183"/>
      <point x="259" y="-226"/>
    </contour>
  </outline>
</glyph>
<glyph name="er-cy.ss01" format="2">
  <advance width="664"/>
  <anchor x="365" y="0" name="bottom"/>
  <anchor x="343" y="532" name="top"/>
  <outline>
    <contour>
      <point x="346" y="538" type="curve" smooth="yes"/>
      <point x="179" y="538"/>
      <point x="66" y="427"/>
      <point x="66" y="264" type="curve" smooth="yes"/>
      <point x="66" y="-194" type="line"/>
      <point x="177" y="-194" type="line"/>
      <point x="177" y="159" type="line"/>
      <point x="135" y="141" type="line"/>
      <point x="170" y="46"/>
      <point x="249" y="-6"/>
      <point x="358" y="-6" type="curve" smooth="yes"/>
      <point x="514" y="-6"/>
      <point x="620" y="103"/>
      <point x="620" y="265" type="curve" smooth="yes"/>
      <point x="620" y="429"/>
      <point x="511" y="538"/>
    </contour>
    <contour>
      <point x="342" y="89" type="curve" smooth="yes"/>
      <point x="243" y="89"/>
      <point x="175" y="161"/>
      <point x="175" y="266" type="curve" smooth="yes"/>
      <point x="175" y="371"/>
      <point x="243" y="442"/>
      <point x="342" y="442" type="curve" smooth="yes"/>
      <point x="442" y="442"/>
      <point x="511" y="369"/>
      <point x="511" y="265" type="curve" smooth="yes"/>
      <point x="511" y="161"/>
      <point x="441" y="89"/>
    </contour>
  </outline>
</glyph>
<glyph name="exclamdown.sc" format="2">
  <advance width="273"/>
  <outline>
    <contour>
      <point x="180" y="363" type="line"/>
      <point x="93" y="363" type="line"/>
      <point x="74" y="0" type="line"/>
      <point x="200" y="0" type="line"/>
    </contour>
    <contour>
      <point x="137" y="577" type="curve" smooth="yes"/>
      <point x="92" y="577"/>
      <point x="64" y="544"/>
      <point x="64" y="510" type="curve" smooth="yes"/>
      <point x="64" y="475"/>
      <point x="92" y="444"/>
      <point x="137" y="444" type="curve" smooth="yes"/>
      <point x="181" y="444"/>
      <point x="209" y="475"/>
      <point x="209" y="510" type="curve" smooth="yes"/>
      <point x="209" y="544"/>
      <point x="181" y="577"/>
    </contour>
  </outline>
</glyph>
<glyph name="f.sc" format="2">
  <advance width="546"/>
  <outline>
    <contour>
      <point x="187" y="308" type="line"/>
      <point x="187" y="216" type="line"/>
      <point x="481" y="216" type="line"/>
      <point x="481" y="308" type="line"/>
    </contour>
    <contour>
      <point x="203" y="0" type="line"/>
      <point x="203" y="478" type="line"/>
      <point x="516" y="478" type="line"/>
      <point x="516" y="570" type="line"/>
      <point x="92" y="570" type="line"/>
      <point x="92" y="0" type="line"/>
    </contour>
  </outline>
</glyph>
<glyph name="i.sc.ss01" format="2">
  <advance width="431"/>
  <anchor x="216" y="0" name="bottom"/>
  <anchor x="271" y="0" name="ogonek"/>
  <anchor x="216" y="570" name="top"/>
  <anchor x="15" y="570" name="topleft"/>
  <outline>
    <contour>
      <point x="160" y="13" type="line"/>
      <point x="271" y="13" type="line"/>
      <point x="271" y="558" type="line"/>
      <point x="160" y="558" type="line"/>
    </contour>
    <contour>
      <point x="55" y="0" type="line"/>
      <point x="376" y="0" type="line"/>
      <point x="376" y="92" type="line"/>
      <point x="55" y="92" type="line"/>
    </contour>
    <contour>
      <point x="55" y="478" type="line"/>
      <point x="376" y="478" type="line"/>
      <point x="376" y="570" type="line"/>
      <point x="55" y="570" type="line"/>
    </contour>
  </outline>
</glyph>
<glyph name="nine.dnom" format="2">
  <advance width="430"/>
  <outline>
    <contour>
      <point x="164" y="-6" type="curve" smooth="yes"/>
      <point x="306" y="-6"/>
      <point x="396" y="79"/>
      <point x="396" y="216" type="curve" smooth="yes"/>
      <point x="396" y="346"/>
      <point x="324" y="421"/>
      <point x="197" y="421" type="curve" smooth="yes"/>
      <point x="100" y="421"/>
      <point x="30" y="367"/>
      <point x="30" y="286" type="curve" smooth="yes"/>
      <point x="30" y="210"/>
      <point x="97" y="159"/>
      <point x="188" y="159" type="curve" smooth="yes"/>
      <point x="261" y="159"/>
      <point x="315" y="190"/>
      <point x="330" y="228" type="curve"/>
      <point x="310" y="261" type="line"/>
      <point x="315" y="241"/>
      <point x="317" y="219"/>
      <point x="317" y="202" type="curve" smooth="yes"/>
      <point x="317" y="116"/>
      <point x="258" y="62"/>
      <point x="165" y="62" type="curve" smooth="yes"/>
      <point x="133" y="62"/>
      <point x="103" y="68"/>
      <point x="77" y="81" type="curve"/>
      <point x="49" y="19" type="line"/>
      <point x="78" y="3"/>
      <point x="122" y="-6"/>
    </contour>
    <contour>
      <point x="202" y="219" type="curve" smooth="yes"/>
      <point x="142" y="219"/>
      <point x="108" y="248"/>
      <point x="108" y="290" type="curve" smooth="yes"/>
      <point x="108" y="332"/>
      <point x="143" y="360"/>
      <point x="199" y="360" type="curve" smooth="yes"/>
      <point x="271" y="360"/>
      <point x="301" y="324"/>
      <point x="301" y="290" type="curve" smooth="yes"/>
      <point x="301" y="248"/>
      <point x="262" y="219"/>
    </contour>
  </outline>
</glyph>
<glyph name="oe.ss01" format="2">
  <advance width="1081"/>
  <anchor x="541" y="0" name="bottom"/>
  <anchor x="541" y="532" name="top"/>
  <outline>
    <contour>
      <point x="320" y="-6" type="curve" smooth="yes"/>
      <point x="482" y="-6"/>
      <point x="589" y="107"/>
      <point x="589" y="266" type="curve" smooth="yes"/>
      <point x="589" y="425"/>
      <point x="482" y="538"/>
      <point x="320" y="538" type="curve" smooth="yes"/>
      <point x="159" y="538"/>
      <point x="40" y="425"/>
      <point x="40" y="266" type="curve" smooth="yes"/>
      <point x="40" y="107"/>
      <point x="159" y="-6"/>
    </contour>
    <contour>
      <point x="320" y="90" type="curve" smooth="yes"/>
      <point x="224" y="90"/>
      <point x="151" y="159"/>
      <point x="151" y="266" type="curve" smooth="yes"/>
      <point x="151" y="373"/>
      <point x="224" y="442"/>
      <point x="320" y="442" type="curve" smooth="yes"/>
      <point x="417" y="442"/>
      <point x="489" y="373"/>
      <point x="489" y="266" type="curve" smooth="yes"/>
      <point x="489" y="159"/>
      <point x="417" y="90"/>
    </contour>
    <contour>
      <point x="787" y="-6" type="curve" smooth="yes"/>
      <point x="880" y="-6"/>
      <point x="956" y="24"/>
      <point x="1005" y="80" type="curve"/>
      <point x="944" y="151" type="line"/>
      <point x="904" y="110"/>
      <point x="853" y="90"/>
      <point x="790" y="90" type="curve" smooth="yes"/>
      <point x="676" y="90"/>
      <point x="599" y="159"/>
      <point x="599" y="260" type="curve" smooth="yes"/>
      <point x="599" y="278" type="line" smooth="yes"/>
      <point x="599" y="377"/>
      <point x="668" y="445"/>
      <point x="767" y="445" type="curve" smooth="yes"/>
      <point x="866" y="445"/>
      <point x="935" y="377"/>
      <point x="934" y="281" type="curve"/>
      <point x="975" y="337" type="line"/>
      <point x="580" y="264" type="line"/>
      <point x="583" y="184" type="line"/>
      <point x="1041" y="270" type="line"/>
      <point x="1039" y="437"/>
      <point x="918" y="538"/>
      <point x="767" y="538" type="curve" smooth="yes"/>
      <point x="604" y="538"/>
      <point x="495" y="424"/>
      <point x="495" y="266" type="curve" smooth="yes"/>
      <point x="495" y="107"/>
      <point x="605" y="-6"/>
    </contour>
  </outline>
</glyph>
<glyph name="ogonekcomb.i" format="2">
  <anchor x="301" y="0" name="_ogonek"/>
  <outline>
    <contour>
      <point x="270" y="-226" type="curve" smooth="yes"/>
      <point x="296" y="-226"/>
      <point x="320" y="-219"/>
      <point x="336" y="-207" type="curve"/>
      <point x="318" y="-153" type="line"/>
      <point x="307" y="-160"/>
      <point x="296" y="-163"/>
      <point x="285" y="-163" type="curve" smooth="yes"/>
      <point x="261" y="-163"/>
      <point x="241" y="-144"/>
      <point x="241" y="-113" type="curve" smooth="yes"/>
      <point x="241" y="-82"/>
      <point x="252" y="-45"/>
      <point x="301" y="0" type="curve"/>
      <point x="261" y="34" type="line"/>
      <point x="193" y="-16"/>
      <point x="165" y="-70"/>
      <point x="165" y="-125" type="curve" smooth="yes"/>
      <point x="165" y="-186"/>
      <point x="207" y="-226"/>
    </contour>
  </outline>
</glyph>
<glyph name="periodcentered.loclCAT.case" format="2">
  <advance width="345"/>
  <anchor x="189" y="428" name="_dot"/>
  <outline>
    <contour>
      <point x="189" y="359" type="curve" smooth="yes"/>
      <point x="226" y="359"/>
      <point x="255" y="388"/>
      <point x="255" y="428" type="curve" smooth="yes"/>
      <point x="255" y="468"/>
      <point x="226" y="497"/>
      <point x="189" y="497" type="curve" smooth="yes"/>
      <point x="152" y="497"/>
      <point x="122" y="468"/>
      <point x="122" y="428" type="curve" smooth="yes"/>
      <point x="122" y="388"/>
      <point x="152" y="359"/>
    </contour>
  </outline>
</glyph>
<glyph name="periodcentered.loclCAT.sc" format="2">
  <advance width="140"/>
  <anchor x="70" y="342" name="_center"/>
  <anchor x="70" y="372" name="top"/>
  <outline>
    <contour>
      <point x="70" y="279" type="curve" smooth="yes"/>
      <point x="107" y="279"/>
      <point x="135" y="308"/>
      <point x="135" y="347" type="curve" smooth="yes"/>
      <point x="135" y="387"/>
      <point x="107" y="416"/>
      <point x="70" y="416" type="curve" smooth="yes"/>
      <point x="33" y="416"/>
      <point x="6" y="387"/>
      <point x="6" y="347" type="curve" smooth="yes"/>
      <point x="6" y="308"/>
      <point x="33" y="279"/>
    </contour>
  </outline>
</glyph>
<glyph name="periodcentered.sc" format="2">
  <advance width="275"/>
  <anchor x="138" y="304" name="_dot"/>
  <outline>
    <contour>
      <point x="138" y="226" type="curve" smooth="yes"/>
      <point x="178" y="226"/>
      <point x="210" y="258"/>
      <point x="210" y="302" type="curve" smooth="yes"/>
      <point x="210" y="347"/>
      <point x="178" y="378"/>
      <point x="138" y="378" type="curve" smooth="yes"/>
      <point x="97" y="378"/>
      <point x="65" y="347"/>
      <point x="65" y="302" type="curve" smooth="yes"/>
      <point x="65" y="258"/>
      <point x="97" y="226"/>
    </contour>
  </outline>
</glyph>
<glyph name="seven.dnom" format="2">
  <advance width="430"/>
  <outline>
    <contour>
      <point x="122" y="0" type="line"/>
      <point x="210" y="0" type="line"/>
      <point x="401" y="364" type="line"/>
      <point x="401" y="415" type="line"/>
      <point x="34" y="415" type="line"/>
      <point x="34" y="280" type="line"/>
      <point x="106" y="280" type="line"/>
      <point x="106" y="388" type="line"/>
      <point x="70" y="350" type="line"/>
      <point x="346" y="350" type="line"/>
      <point x="323" y="385" type="line"/>
    </contour>
  </outline>
</glyph>
<glyph name="slashshortcomb.case" format="2">
  <anchor x="217" y="388" name="_center"/>
  <outline>
    <contour>
      <point x="103" y="249" type="line"/>
      <point x="433" y="500" type="line"/>
      <point x="383" y="564" type="line"/>
      <point x="53" y="313" type="line"/>
    </contour>
  </outline>
</glyph>
<glyph name="t.sc.ss01" format="2">
  <advance width="513"/>
  <anchor x="256" y="0" name="bottom"/>
  <anchor x="256" y="261" name="center"/>
  <anchor x="256" y="571" name="top"/>
  <outline>
    <contour>
      <point x="32" y="425" type="line"/>
      <point x="101" y="464"/>
      <point x="175" y="483"/>
      <point x="256" y="483" type="curve" smooth="yes"/>
      <point x="338" y="483"/>
      <point x="412" y="464"/>
      <point x="481" y="425" type="curve"/>
      <point x="519" y="510" type="line"/>
      <point x="441" y="557"/>
      <point x="348.99" y="578.99"/>
      <point x="256" y="579" type="curve" smooth="yes"/>
      <point x="164" y="579"/>
      <point x="72" y="557"/>
      <point x="-6" y="510" type="curve"/>
    </contour>
    <contour>
      <point x="201" y="0" type="line"/>
      <point x="312" y="0" type="line"/>
      <point x="312" y="522" type="line"/>
      <point x="201" y="522" type="line"/>
    </contour>
  </outline>
</glyph>
<glyph name="three.dnom" format="2">
  <advance width="430"/>
  <outline>
    <contour>
      <point x="201" y="-6" type="curve" smooth="yes"/>
      <point x="323" y="-6"/>
      <point x="385" y="54"/>
      <point x="385" y="124" type="curve" smooth="yes"/>
      <point x="385" y="196"/>
      <point x="328" y="246"/>
      <point x="220" y="246" type="curve" smooth="yes"/>
      <point x="193" y="246" type="line"/>
      <point x="230" y="223" type="line"/>
      <point x="364" y="364" type="line"/>
      <point x="364" y="415" type="line"/>
      <point x="39" y="415" type="line"/>
      <point x="39" y="350" type="line"/>
      <point x="303" y="350" type="line"/>
      <point x="290" y="380" type="line"/>
      <point x="156" y="239" type="line"/>
      <point x="156" y="186" type="line"/>
      <point x="205" y="186" type="line" smooth="yes"/>
      <point x="274" y="186"/>
      <point x="305" y="162"/>
      <point x="305" y="124" type="curve" smooth="yes"/>
      <point x="305" y="86"/>
      <point x="271" y="62"/>
      <point x="201" y="62" type="curve" smooth="yes"/>
      <point x="143" y="62"/>
      <point x="89" y="79"/>
      <point x="56" y="104" type="curve"/>
      <point x="24" y="44" type="line"/>
      <point x="59" y="14"/>
      <point x="129" y="-6"/>
    </contour>
  </outline>
</glyph>
<glyph name="two.tosf" format="2">
  <advance width="700"/>
  <outline>
    <contour>
      <point x="94" y="0" type="line"/>
      <point x="620" y="0" type="line"/>
      <point x="620" y="100" type="line"/>
      <point x="191" y="100" type="line"/>
      <point x="218" y="43" type="line"/>
      <point x="463" y="231" type="line" smooth="yes"/>
      <point x="555" y="302"/>
      <point x="588" y="354"/>
      <point x="588" y="425" type="curve" smooth="yes"/>
      <point x="588" y="534"/>
      <point x="493" y="609"/>
      <point x="337" y="609" type="curve" smooth="yes"/>
      <point x="219" y="609"/>
      <point x="123" y="569"/>
      <point x="66" y="491" type="curve"/>
      <point x="154" y="433" type="line"/>
      <point x="193" y="483"/>
      <point x="254" y="509"/>
      <point x="330" y="509" type="curve" smooth="yes"/>
      <point x="426" y="509"/>
      <point x="473" y="471"/>
      <point x="473" y="419" type="curve" smooth="yes"/>
      <point x="473" y="380"/>
      <point x="463" y="352"/>
      <point x="387" y="293" type="curve" smooth="yes"/>
      <point x="94" y="67" type="line"/>
    </contour>
  </outline>
</glyph>
<glyph name="udieresis.sc.alt.BRACKET.133" format="2">
  <advance width="681"/>
  <outline>
    <contour>
      <point x="341" y="-9" type="curve" smooth="yes"/>
      <point x="500" y="-9"/>
      <point x="595" y="84"/>
      <point x="595" y="244" type="curve" smooth="yes"/>
      <point x="595" y="570" type="line"/>
      <point x="485" y="570" type="line"/>
      <point x="485" y="248" type="line" smooth="yes"/>
      <point x="485" y="140"/>
      <point x="434" y="88"/>
      <point x="342" y="88" type="curve" smooth="yes"/>
      <point x="250" y="88"/>
      <point x="198" y="140"/>
      <point x="198" y="248" type="curve" smooth="yes"/>
      <point x="198" y="570" type="line"/>
      <point x="86" y="570" type="line"/>
      <point x="86" y="244" type="line" smooth="yes"/>
      <point x="86" y="84"/>
      <point x="182" y="-9"/>
    </contour>
    <contour>
      <point x="342" y="321" type="curve" smooth="yes"/>
      <point x="375" y="321"/>
      <point x="402" y="346"/>
      <point x="402" y="381" type="curve" smooth="yes"/>
      <point x="402" y="416"/>
      <point x="375" y="441"/>
      <point x="342" y="441" type="curve" smooth="yes"/>
      <point x="308" y="441"/>
      <point x="282" y="416"/>
      <point x="282" y="381" type="curve" smooth="yes"/>
      <point x="282" y="346"/>
      <point x="308" y="321"/>
    </contour>
    <contour>
      <point x="341" y="459" type="curve" smooth="yes"/>
      <point x="374" y="459"/>
      <point x="402" y="483"/>
      <point x="402" y="518" type="curve" smooth="yes"/>
      <point x="402" y="554"/>
      <point x="375" y="579"/>
      <point x="341" y="579" type="curve" smooth="yes"/>
      <point x="308" y="579"/>
      <point x="282" y="554"/>
      <point x="282" y="518" type="curve" smooth="yes"/>
      <point x="282" y="483"/>
      <point x="308" y="459"/>
    </contour>
  </outline>
</glyph>
<glyph name="udieresis.sc.ss01.alt" format="2">
  <advance width="688"/>
  <outline>
    <contour>
      <point x="407" y="483" type="curve" smooth="yes"/>
      <point x="433" y="483"/>
      <point x="453" y="503"/>
      <point x="453" y="531" type="curve" smooth="yes"/>
      <point x="453" y="559"/>
      <point x="433" y="579"/>
      <point x="407" y="579" type="curve" smooth="yes"/>
      <point x="381" y="579"/>
      <point x="361" y="559"/>
      <point x="361" y="531" type="curve" smooth="yes"/>
      <point x="361" y="503"/>
      <point x="381" y="483"/>
    </contour>
    <contour>
      <point x="276" y="483" type="curve" smooth="yes"/>
      <point x="302" y="483"/>
      <point x="322" y="503"/>
      <point x="322" y="531" type="curve" smooth="yes"/>
      <point x="322" y="559"/>
      <point x="302" y="579"/>
      <point x="276" y="579" type="curve" smooth="yes"/>
      <point x="250" y="579"/>
      <point x="230" y="559"/>
      <point x="230" y="531" type="curve" smooth="yes"/>
      <point x="230" y="503"/>
      <point x="250" y="483"/>
    </contour>
    <contour>
      <point x="311" y="-9" type="curve" smooth="yes"/>
      <point x="413" y="-9"/>
      <point x="486" y="32"/>
      <point x="522" y="112" type="curve"/>
      <point x="490" y="133" type="line"/>
      <point x="490" y="0" type="line"/>
      <point x="596" y="0" type="line"/>
      <point x="596" y="570" type="line"/>
      <point x="485" y="570" type="line"/>
      <point x="485" y="239" type="line" smooth="yes"/>
      <point x="485" y="144"/>
      <point x="427" y="87"/>
      <point x="333" y="87" type="curve" smooth="yes"/>
      <point x="246" y="87"/>
      <point x="197" y="140"/>
      <point x="197" y="234" type="curve" smooth="yes"/>
      <point x="197" y="570" type="line"/>
      <point x="86" y="570" type="line"/>
      <point x="86" y="230" type="line" smooth="yes"/>
      <point x="86" y="80"/>
      <point x="170" y="-9"/>
    </contour>
  </outline>
</glyph>
<glyph name="uogonek.loclNAV.sc.ss01" format="2">
  <advance width="688"/>
  <anchor x="342" y="0" name="bottom"/>
  <anchor x="596" y="0" name="ogonek"/>
  <anchor x="342" y="570" name="top"/>
  <anchor x="548" y="570" name="topright"/>
  <outline>
    <contour>
      <point x="380" y="35" type="line"/>
      <point x="275" y="-7"/>
      <point x="236" y="-66"/>
      <point x="236" y="-122" type="curve" smooth="yes"/>
      <point x="236" y="-183"/>
      <point x="282" y="-226"/>
      <point x="361" y="-226" type="curve" smooth="yes"/>
      <point x="395" y="-226"/>
      <point x="429" y="-217"/>
      <point x="454" y="-203" type="curve"/>
      <point x="434" y="-147" type="line"/>
      <point x="418" y="-157"/>
      <point x="394" y="-163"/>
      <point x="373" y="-163" type="curve" smooth="yes"/>
      <point x="338" y="-163"/>
      <point x="313" y="-146"/>
      <point x="313" y="-109" type="curve" smooth="yes"/>
      <point x="313" y="-65"/>
      <point x="350" y="-38"/>
      <point x="403" y="-6" type="curve" smooth="yes"/>
      <point x="457" y="27"/>
      <point x="500" y="58"/>
      <point x="522" y="112" type="curve"/>
      <point x="490" y="133" type="line"/>
      <point x="490" y="0" type="line"/>
      <point x="596" y="0" type="line"/>
      <point x="596" y="570" type="line"/>
      <point x="485" y="570" type="line"/>
      <point x="485" y="239" type="line" smooth="yes"/>
      <point x="485" y="144"/>
      <point x="427" y="87"/>
      <point x="333" y="87" type="curve" smooth="yes"/>
      <point x="246" y="87"/>
      <point x="197" y="140"/>
      <point x="197" y="234" type="curve" smooth="yes"/>
      <point x="197" y="570" type="line"/>
      <point x="86" y="570" type="line"/>
      <point x="86" y="230" type="line" smooth="yes"/>
      <point x="86" y="80"/>
      <point x="170" y="-9"/>
      <point x="311" y="-9" type="curve" smooth="yes"/>
      <point x="336" y="-9"/>
      <point x="360" y="-6"/>
      <point x="381" y="-1" type="curve"/>
    </contour>
  </outline>
</glyph>
<glyph name="ve-cy.loclBGR" format="2">
  <advance width="639"/>
  <outline>
    <contour>
      <point x="72" y="205" type="line" smooth="yes"/>
      <point x="72" y="61"/>
      <point x="202" y="-9"/>
      <point x="332" y="-9" type="curve" smooth="yes"/>
      <point x="464" y="-9"/>
      <point x="596" y="62"/>
      <point x="596" y="209" type="curve" smooth="yes"/>
      <point x="596" y="323"/>
      <point x="508" y="402"/>
      <point x="350" y="402" type="curve"/>
      <point x="333" y="369" type="line"/>
      <point x="469" y="369"/>
      <point x="561" y="443"/>
      <point x="561" y="555" type="curve" smooth="yes"/>
      <point x="561" y="685"/>
      <point x="444" y="751"/>
      <point x="323" y="751" type="curve" smooth="yes"/>
      <point x="199" y="751"/>
      <point x="72" y="680"/>
      <point x="72" y="530" type="curve" smooth="yes"/>
    </contour>
    <contour>
      <point x="182" y="214" type="curve" smooth="yes"/>
      <point x="182" y="339" type="line"/>
      <point x="333" y="339" type="line" smooth="yes"/>
      <point x="428" y="339"/>
      <point x="483" y="299"/>
      <point x="483" y="216" type="curve" smooth="yes"/>
      <point x="483" y="127"/>
      <point x="407" y="83"/>
      <point x="331" y="83" type="curve" smooth="yes"/>
      <point x="256" y="83"/>
      <point x="182" y="125"/>
    </contour>
    <contour>
      <point x="182" y="425" type="line"/>
      <point x="182" y="526" type="line" smooth="yes"/>
      <point x="182" y="616"/>
      <point x="251" y="657"/>
      <point x="319" y="657" type="curve" smooth="yes"/>
      <point x="386" y="657"/>
      <point x="450" y="618"/>
      <point x="450" y="541" type="curve" smooth="yes"/>
      <point x="450" y="462"/>
      <point x="396" y="425"/>
      <point x="310" y="425" type="curve" smooth="yes"/>
    </contour>
  </outline>
</glyph>
<glyph name="y.ss01" format="2">
  <advance width="679"/>
  <anchor x="665" y="0" name="bottom"/>
  <anchor x="337" y="532" name="top"/>
  <outline>
    <contour>
      <point x="482" y="532" type="line"/>
      <point x="482" y="289" type="line" smooth="yes"/>
      <point x="482" y="178"/>
      <point x="420" y="121"/>
      <point x="326" y="121" type="curve" smooth="yes"/>
      <point x="241" y="121"/>
      <point x="192" y="170"/>
      <point x="192" y="269" type="curve" smooth="yes"/>
      <point x="192" y="532" type="line"/>
      <point x="82" y="532" type="line"/>
      <point x="82" y="256" type="line" smooth="yes"/>
      <point x="82" y="97"/>
      <point x="175" y="23"/>
      <point x="313" y="23" type="curve" smooth="yes"/>
      <point x="395" y="23"/>
      <point x="469" y="60"/>
      <point x="505" y="127" type="curve"/>
      <point x="482" y="162" type="line"/>
      <point x="482" y="65" type="line" smooth="yes"/>
      <point x="482" y="-48"/>
      <point x="431" y="-103"/>
      <point x="318" y="-103" type="curve" smooth="yes"/>
      <point x="244" y="-103"/>
      <point x="175" y="-78"/>
      <point x="130" y="-38" type="curve"/>
      <point x="77" y="-123" type="line"/>
      <point x="135" y="-174"/>
      <point x="230" y="-200"/>
      <point x="323" y="-200" type="curve" smooth="yes"/>
      <point x="499" y="-200"/>
      <point x="592" y="-114"/>
      <point x="592" y="77" type="curve" smooth="yes"/>
      <point x="592" y="532" type="line"/>
    </contour>
  </outline>
</glyph>
<glyph name="z.sc.ss01" format="2">
  <advance width="560"/>
  <anchor x="289" y="0" name="bottom"/>
  <anchor x="286" y="570" name="top"/>
  <outline>
    <contour>
      <point x="40" y="0" type="line"/>
      <point x="535" y="0" type="line"/>
      <point x="535" y="92" type="line"/>
      <point x="140" y="92" type="line"/>
      <point x="152" y="52" type="line"/>
      <point x="524" y="496" type="line"/>
      <point x="524" y="570" type="line"/>
      <point x="46" y="570" type="line"/>
      <point x="46" y="478" type="line"/>
      <point x="423" y="478" type="line"/>
      <point x="412" y="518" type="line"/>
      <point x="40" y="74" type="line"/>
    </contour>
    <contour>
      <point x="74" y="244" type="line"/>
      <point x="257" y="244" type="line"/>
      <point x="286" y="243" type="line"/>
      <point x="504" y="243" type="line"/>
      <point x="504" y="333" type="line"/>
      <point x="317" y="333" type="line"/>
      <point x="288" y="334" type="line"/>
      <point x="74" y="334" type="line"/>
    </contour>
  </outline>
</glyph>
